<svg viewBox="0 0 74 67" fill="none" xmlns="http://www.w3.org/2000/svg">
<g clip-path="url(#clip0_1_8)">
<path d="M44.9967 66.7736C64.3267 66.7736 73.625 47.7756 73.625 28.4457C73.625 9.11571 60.146 0 40.8161 0C21.4861 0 0 11.1157 0 30.4457C0 49.7756 25.6668 66.7736 44.9967 66.7736Z" fill="white"/>
<path d="M38.72 60.44C54.5816 60.44 67.44 47.5816 67.44 31.72C67.44 15.8584 54.5816 3 38.72 3C22.8584 3 10 15.8584 10 31.72C10 47.5816 22.8584 60.44 38.72 60.44Z" fill="#eab308"/>
<path d="M16.5995 31.5595L17.065 34.2354C17.0721 34.2663 17.0873 34.2956 17.1104 34.3235L19.215 36.4476C19.2417 36.4764 19.2791 36.4934 19.3156 36.4993C19.3299 36.503 19.3459 36.4999 19.3619 36.4968C19.4136 36.4886 19.4607 36.4537 19.4811 36.4046L20.5664 33.8941C21.1433 33.9867 21.6658 33.9235 22.1159 33.7L23.0756 34.658C23.1397 34.7183 23.2367 34.7255 23.3043 34.6706L24.1724 33.9829C24.2062 33.9554 24.224 33.9165 24.2275 33.8739C24.231 33.8313 24.2159 33.7874 24.1856 33.7577L23.2446 32.7138C23.3592 32.4934 23.5812 31.9345 23.5126 31.0313L26.291 30.4287C26.3471 30.4179 26.3871 30.3812 26.4075 30.3321C26.428 30.283 26.4163 30.2256 26.3852 30.1848L24.543 27.8425C24.5233 27.8156 24.4904 27.7961 24.4592 27.7843L21.7818 26.9801C21.3343 26.3481 20.7961 25.6996 20.1937 25.0489C16.7221 21.3124 13.7811 20.4539 12.3372 20.2729C11.8618 20.2141 11.5939 20.2348 11.5859 20.2364C11.52 20.2409 11.4666 20.2851 11.4462 20.3487C11.3974 20.5065 10.3472 24.296 15.0473 29.986C15.0571 29.9921 15.6854 30.7331 16.5995 31.5595ZM17.4809 27.7377C16.6554 27.6418 16.0717 26.895 16.1668 26.0728C16.2651 25.2514 17.0071 24.6595 17.8317 24.7587C18.653 24.857 19.2449 25.599 19.1457 26.4236C19.0506 27.2458 18.3063 27.8337 17.4809 27.7377Z" fill="#15233B"/>
<path d="M40.596 50.8783C34.3633 50.8783 30.0374 48.8404 26.1384 44.0762C26.053 43.9935 26.0246 43.8834 26.0246 43.7457C26.0246 42.9471 27.476 41.515 29.0982 40.1932C30.5781 38.9815 32.2857 37.8248 33.1395 37.8248C33.3387 37.8248 33.481 37.8799 33.5664 37.99C35.2171 39.8352 37.3516 41.1846 40.0268 41.1846C42.8443 41.1846 44.5234 40.1105 44.5234 38.2103C44.5234 36.3102 43.2428 35.181 39.7991 35.181C38 35.181 35.5 34.3362 35.5 31.1053C35.5 27.9882 38 27.0846 39.6853 27.0846C42.6166 27.0846 45.0279 25.1796 45 23.5C44.988 22.7757 44.7 21.8617 44.5 21.5C44.0471 20.6809 42.3785 19.5 41 19.5C39 19.5 37.5 20 35.5 21.5C31.5 24 28 22 31 17C32.6273 14.2879 37.2605 12.2923 41 12.5C50 13 53 19.7899 53 23.5C53 26.2264 51.8744 29.8385 49 31.1053C51.8744 32.1793 54.9113 36.0348 54.9113 38.9539C54.8543 46.8301 48.3371 50.8783 40.596 50.8783Z" fill="#15233B"/>
</g>
<defs>
<clipPath id="clip0_1_8">
<rect width="74" height="67" fill="white"/>
</clipPath>
</defs>
</svg>
