<?xml version="1.0" encoding="UTF-8"?>
<svg viewBox="0 0 595 1500" version="1.1" xmlns="http://www.w3.org/2000/svg" xmlns:xlink="http://www.w3.org/1999/xlink">
    <defs>
        <linearGradient x1="-0.000202618213%" y1="50.0000451%" x2="99.9999507%" y2="50.0000451%" id="gradient-blue">
            <stop stop-color="#15243C" offset="0%"></stop>
            <stop stop-color="#2D3F5C" offset="100%"></stop>
        </linearGradient>

        <linearGradient x1="0.00157507926%" y1="50.000181%" x2="100.001978%" y2="50.000181%" id="gradient-grey">
            <stop stop-color="#E0E5EA" offset="0%"></stop>
            <stop stop-color="#ABB4BA" offset="100%"></stop>
        </linearGradient>

        <linearGradient x1="4.78927203e-05%" y1="49.9973069%" x2="99.9979885%" y2="49.9973069%" id="gradient-yellow">
            <stop stop-color="#FDD692" offset="0%"></stop>
            <stop stop-color="#DB9302" offset="100%"></stop>
        </linearGradient>
    </defs>

    <g stroke="none" stroke-width="1" fill="none" fill-rule="evenodd" transform="translate(0, 510)"  >
        <path d="M382.120476,80 C382.120476,80 314.472662,549.395662 384.549174,773.775627 L384.556257,773.762306 C391.065331,781.77597 395.878572,792.184858 398.201402,803.933761 C401.496887,800.562196 405.126854,797.950224 408.994345,796.252611 C405.798022,788.052421 404,778.795863 404,769 C404,735.31063 425.266474,708 451.5,708 C466.500287,708 479.87658,716.929303 488.581679,730.874661 C496.03397,724.629195 504.93696,721 514.5,721 C540.733526,721 562,748.31063 562,782 C562,791.29324 560.381756,800.101099 557.487401,807.984204 C575.968692,813.242396 590,839.007745 590,870 C590,895.935057 580.174239,918.209847 566.136124,927.87134 C550.599985,960.611345 439.397575,986 304.526066,986 C161.368139,986 44.8770828,957.395783 41.1444184,921.755926 C30.9231201,910.377115 24.2274882,891.432638 24.2274882,869.985349 C24.2274882,867.733047 24.3013295,865.508347 24.4453492,863.317111 C9.2941307,852.025198 0,836.769045 0,819.979033 C0,808.111544 4.64327574,797.010358 12.7161544,787.533058 C4.82614021,776.640546 0,762.029824 0,745.969687 C0,712.276062 34.7857469,674.623543 60.9891717,674.623543 C76.8297011,674.623543 95.8066062,687.287031 108.339016,704.746902 C116.258672,685.260207 132.127598,671.96034 150.412322,671.96034 C176.615747,671.96034 197.85782,699.27442 197.85782,732.968045 C197.85782,758.901866 185.273363,781.05625 167.528314,789.885233 C168.734971,791.445416 169.848316,793.047512 170.865822,794.686066 C173.193069,794.217776 175.577621,793.975749 178.004739,793.975749 C188.445388,793.975749 198.098376,798.454286 205.933835,806.043686 C213.768796,798.454345 223.421842,793.975749 233.862559,793.975749 C233.937665,793.975749 234.012729,793.975981 234.087753,793.976444 C240.477653,780.472825 250.190938,771.217351 261.27937,769.329212 C304.644954,638.418307 310.703203,411.903903 279.455603,89.7902809 L278.497287,80 L382.120476,80 Z" id="smoke-1" fill="#D8D8D8"></path>
        <path d="M369.355484,88 C369.355484,88 323.918731,289.888137 326.252487,465.917312 C327.983846,596.509243 350.35728,718.688038 363.643213,767.388838 C379.292318,770.604799 392.379516,783.534594 398.950036,801.150479 C403.247902,801.095015 407.577192,800.919768 411.699309,801.305023 C413.075895,800.864968 414.4785,800.532656 415.903217,800.313433 C415.310761,796.655747 415,792.872187 415,789 C415,756.967485 436.266474,731 462.5,731 C479.396886,731 494.233148,741.772832 502.653445,758.000394 C527.992836,758.09743 548.662385,782.423887 549.937625,813.001674 L550,813 C572.09139,813 590,840.086773 590,873.5 C590,894.662358 582.816218,913.28695 571.935843,924.099401 C568.986526,958.406587 452.006319,986 308.131868,986 C164.7609,986 48.0962748,958.599374 44.3562497,924.458983 C34.1200576,913.559292 27.4139194,895.411085 27.4139194,874.865165 C27.4139194,861.697538 30.1683782,849.514741 34.8433753,839.59335 C34.8330152,839.21669 34.8278388,838.838216 34.8278388,838.458926 C34.8278388,827.568514 39.0953032,817.351753 46.5616812,808.530841 C30.8278294,799.008922 20,779.092612 20,756.065858 C20,723.789457 41.2738543,697.624264 67.5164835,697.624264 C76.1022176,697.624264 84.1561012,700.424948 91.1071383,705.324035 C98.0565716,700.424872 106.110353,697.624264 114.695971,697.624264 C140.9386,697.624264 162.212454,723.789457 162.212454,756.065858 C162.212454,765.523882 160.385714,774.45715 157.142502,782.361062 C175.22922,787.224639 190.407784,795.96997 200.428704,807.074272 C202.07834,807.990793 203.680429,809.02293 205.227409,810.162731 L205.833,810.617 L205.756927,810.50194 C203.160469,806.51682 205.925121,801.98739 215.910394,796.96073 C225.164376,792.302207 241.122715,787.751281 255.37005,781.828316 C257.196701,780.793891 259.087271,779.961341 261.030079,779.347595 C268.369084,775.945944 274.882432,772.087392 279.257097,767.542317 C280.72015,764.873592 282.351385,762.363922 284.129039,760.03566 C294.652958,735.879657 309.426389,647.718939 309.591972,474.816141 C309.653252,410.828308 300.471669,283.815596 282.047226,93.7780062 L281.48608,88 L369.355484,88 Z" id="smoke-2" fill-opacity="0.819656906" fill="#A9A9A9"></path>
        <g id="rocket" transform="translate(94.202526, 0.830000)" fill-rule="nonzero">
            <polygon fill="#004563" points="166.707474 681.4 297.537474 680.39 297.187474 638.02 166.367474 639.01"></polygon>
            <path d="M226.637474,457.78 C100.477474,458.75 -1.00252579,559.98 0.00747420902,683.9 C0.237474209,712.7 6.04747421,740.15 16.3074742,765.36 C48.8774742,681.54 131.107474,621.7 227.957474,620.96 C324.817474,620.22 408.007474,678.8 441.907474,762.1 C451.777474,736.75 457.127474,709.21 456.907474,680.41 C455.897474,556.48 352.807474,456.82 226.637474,457.78 Z" fill="url(#gradient-blue)"></path>
            <path d="M286.347474,628.05 C357.287474,645.85 415.067474,696.16 441.907474,762.09 C451.777474,736.74 457.127474,709.2 456.907474,680.4 C456.047474,576.29 383.117474,489.32 285.017474,464.76 L286.347474,628.05 Z" fill="url(#gradient-blue)"></path>
            <path d="M84.8974742,385.87 C85.7574742,491.63 109.327474,588.23 147.697474,662.98 C173.047474,654.87 200.097474,650.33 228.197474,650.12 C256.287474,649.9 283.397474,654.02 308.897474,661.74 C346.017474,586.42 368.017474,489.47 367.157474,383.72 C365.797474,215.73 307.227474,70.71 222.907474,0 C139.747474,71.99 83.5374742,217.88 84.8974742,385.87 Z" fill="url(#gradient-grey)"></path>
            <path d="M119.767474,163.24 C115.737474,174.31 113.52657,182.67 113.52657,182.67 C113.147474,182.91 232.567474,168.47 336.157474,183.34 C336.157474,183.34 330.797474,166.84 328.527474,161.67 C290.647474,125.76 171.807474,114.42 119.767474,163.24 Z" fill="#004563"></path>
            <path d="M197.547474,604.46 C198.117474,674.33 210.917474,734.72 229.127474,764.28 C246.847474,734.45 258.677474,673.87 258.107474,604 C257.547474,534.14 244.727474,473.74 226.527474,444.18 C208.797474,474.02 196.977474,534.6 197.547474,604.46 Z" fill="#273C58"></path>
            <path d="M228.297474,762.83 C228.587474,763.3 228.847474,763.83 229.127474,764.28 C246.847474,734.45 258.677474,673.87 258.107474,604 C257.547474,534.14 244.727474,473.74 226.527474,444.18 C226.267474,444.64 225.997474,445.19 225.717474,445.64 L228.297474,762.83 Z" fill="#15243C"></path>
            <path d="M119.727474,163.39 C153.637474,160.92 188.717474,159.31 224.207474,159.04 C259.677474,158.77 294.597474,159.7 328.527474,161.67 C303.057474,92.76 266.377474,36.46 222.917474,0.01 C180.037474,37.12 144.077474,94.1 119.727474,163.39 Z" fill="url(#gradient-yellow)"></path>
            <path d="M225.977474,214.47 L224.667474,214.47 C199.557474,214.65 175.997474,224.45 158.347474,242.07 C140.687474,259.68 131.077474,282.96 131.277474,307.61 C131.697474,357.88 173.677474,399.03 224.867474,399.33 L226.177474,399.33 C278.077474,398.93 319.967474,357.13 319.537474,306.17 C319.117474,255.9 277.147474,214.77 225.977474,214.47 Z" fill="#EEB719"></path>
            <path d="M224.787474,229.7 C181.427474,230.01 146.437474,264.93 146.777474,307.49 C147.137474,350.09 182.677474,384.43 226.037474,384.1 C269.377474,383.77 304.367474,348.89 304.017474,306.29 C303.667474,263.74 268.117474,229.36 224.787474,229.7 Z" fill="url(#gradient-blue)"></path>
            <path d="M224.337474,0.45 C215.017474,8.66 225.337474,650.67 225.337474,650.67 C226.897474,650.63 228.447474,650.56 230.017474,650.54 C257.637474,650.35 284.277474,654.48 309.347474,662.22 C345.777474,586.93 367.337474,490 366.407474,384.25 C364.947474,216.28 307.267474,71.21 224.337474,0.45 Z" fill="#CFCFCF" opacity="0.5"></path>
            <path d="M226.957474,223.35 C226.957474,225.17 225.487474,226.64 223.667474,226.64 C221.847474,226.64 220.377474,225.17 220.377474,223.35 C220.377474,221.53 221.847474,220.06 223.667474,220.06 C225.487474,220.07 226.957474,221.54 226.957474,223.35 Z" fill="#15243C"></path>
            <path d="M228.927474,391.64 C228.927474,393.46 227.457474,394.93 225.637474,394.93 C223.817474,394.93 222.347474,393.46 222.347474,391.64 C222.347474,389.82 223.817474,388.35 225.637474,388.35 C227.457474,388.35 228.927474,389.82 228.927474,391.64 Z" fill="#15243C"></path>
            <path d="M314.387474,305.52 C314.387474,307.33 312.917474,308.81 311.097474,308.81 C309.277474,308.81 307.807474,307.34 307.807474,305.52 C307.807474,303.7 309.277474,302.23 311.097474,302.23 C312.917474,302.24 314.387474,303.71 314.387474,305.52 Z" fill="#15243C"></path>
            <path d="M142.157474,307.5 C142.157474,309.32 140.687474,310.79 138.867474,310.79 C137.057474,310.79 135.577474,309.32 135.577474,307.5 C135.577474,305.68 137.047474,304.21 138.867474,304.21 C140.687474,304.21 142.157474,305.68 142.157474,307.5 Z" fill="#15243C"></path>
            <path d="M288.747474,367.32 C288.747474,369.14 287.277474,370.61 285.457474,370.61 C283.637474,370.61 282.167474,369.14 282.167474,367.32 C282.167474,365.51 283.637474,364.03 285.457474,364.03 C287.277474,364.03 288.747474,365.5 288.747474,367.32 Z" fill="#15243C"></path>
            <circle fill="#15243C" cx="167.787474" cy="245.7" r="3.29"></circle>
            <path d="M288.087474,247.02 C288.087474,248.84 286.617474,250.31 284.797474,250.31 C282.977474,250.31 281.507474,248.84 281.507474,247.02 C281.507474,245.21 282.977474,243.73 284.797474,243.73 C286.617474,243.73 288.087474,245.2 288.087474,247.02 Z" fill="#15243C"></path>
            <path d="M173.707474,370.6 C173.707474,372.41 172.237474,373.89 170.417474,373.89 C168.597474,373.89 167.127474,372.42 167.127474,370.6 C167.127474,368.78 168.597474,367.31 170.417474,367.31 C172.237474,367.32 173.707474,368.79 173.707474,370.6 Z" fill="#15243C"></path>
        </g>
    </g>
</svg>