<svg viewBox="0 0 242 71" fill="none" xmlns="http://www.w3.org/2000/svg">
<path d="M38.72 64.44C54.5816 64.44 67.44 51.5816 67.44 35.72C67.44 19.8584 54.5816 7 38.72 7C22.8584 7 10 19.8584 10 35.72C10 51.5816 22.8584 64.44 38.72 64.44Z" fill="#EAB308"/>
<path d="M16.5995 35.5595L17.065 38.2354C17.0721 38.2663 17.0873 38.2956 17.1104 38.3235L19.215 40.4476C19.2417 40.4764 19.2791 40.4934 19.3156 40.4993C19.3299 40.503 19.3459 40.4999 19.3619 40.4968C19.4135 40.4886 19.4607 40.4537 19.4811 40.4046L20.5664 37.8941C21.1433 37.9867 21.6658 37.9235 22.1159 37.7L23.0755 38.658C23.1397 38.7183 23.2367 38.7255 23.3043 38.6706L24.1724 37.9829C24.2062 37.9554 24.224 37.9165 24.2275 37.8739C24.231 37.8313 24.2159 37.7874 24.1856 37.7577L23.2446 36.7138C23.3592 36.4934 23.5812 35.9345 23.5126 35.0313L26.291 34.4287C26.3471 34.4179 26.3871 34.3812 26.4075 34.3321C26.428 34.283 26.4163 34.2256 26.3851 34.1848L24.543 31.8425C24.5233 31.8156 24.4904 31.7961 24.4592 31.7843L21.7818 30.9801C21.3343 30.3481 20.7961 29.6996 20.1937 29.0489C16.7221 25.3124 13.7811 24.4539 12.3372 24.2729C11.8618 24.2141 11.5939 24.2348 11.5859 24.2364C11.52 24.2409 11.4666 24.2851 11.4462 24.3487C11.3974 24.5065 10.3472 28.296 15.0473 33.986C15.0571 33.9921 15.6854 34.7331 16.5995 35.5595ZM17.4809 31.7377C16.6554 31.6418 16.0716 30.895 16.1668 30.0728C16.2651 29.2514 17.0071 28.6595 17.8317 28.7587C18.653 28.857 19.2449 29.599 19.1457 30.4236C19.0506 31.2458 18.3063 31.8337 17.4809 31.7377Z" fill="#15233B"/>
<path d="M40.596 54.8783C34.3633 54.8783 30.0374 52.8404 26.1384 48.0762C26.053 47.9935 26.0246 47.8834 26.0246 47.7457C26.0246 46.9471 27.476 45.515 29.0982 44.1932C30.5781 42.9815 32.2857 41.8248 33.1395 41.8248C33.3388 41.8248 33.481 41.8799 33.5664 41.99C35.2171 43.8352 37.3516 45.1846 40.0268 45.1846C42.8443 45.1846 44.5234 44.1105 44.5234 42.2103C44.5234 40.3102 43.2428 39.181 39.7991 39.181C38 39.181 35.5 38.3362 35.5 35.1053C35.5 31.9882 38 31.0846 39.6853 31.0846C42.6166 31.0846 45.0279 29.1796 45 27.5C44.988 26.7757 44.7 25.8617 44.5 25.5C44.0471 24.6809 42.3785 23.5 41 23.5C39 23.5 37.5 24 35.5 25.5C31.5 28 28 26 31 21C32.6273 18.2879 37.2606 16.2923 41 16.5C50 17 53 23.7899 53 27.5C53 30.2264 51.8744 33.8385 49 35.1053C51.8744 36.1793 54.9113 40.0348 54.9113 42.9539C54.8543 50.8301 48.3371 54.8783 40.596 54.8783Z" fill="#15233B"/>
<path d="M80.0859 54.7922C76.4062 54.7922 73.4766 52.7062 73.4766 48.3C73.4766 43.9172 77.25 41.3391 82.5703 40.3078L85.9922 39.6516V38.4797C85.9922 37.4016 85.3125 36.6281 83.8359 36.6281C82.0312 36.6281 79.9453 37.0734 77.4609 38.3859C77.3672 38.4328 77.2734 38.4562 77.1797 38.4562C76.5 38.4562 75.8203 37.1906 75.2578 35.8312C74.8828 34.9172 74.5312 34.05 74.5312 33.3937C74.5312 32.9719 74.6719 32.6437 75.0234 32.4562C78.2578 30.7219 81.0234 29.9484 84.2344 29.9484C90.1641 29.9484 93.8203 32.4797 93.8203 39.0891V53.5969C93.8203 54.5344 92.0156 54.5344 90.2109 54.5344C88.3828 54.5344 86.5547 54.5344 86.5547 53.5969V51.5344C85.1953 53.5031 83.2734 54.7922 80.0859 54.7922ZM83.1094 48.2766C85.0312 48.2766 85.9922 46.8937 85.9922 45.7687V44.2922L83.25 44.8547C82.1953 45.0187 81.3516 45.7219 81.3516 46.7531C81.3516 47.6437 82.0547 48.2766 83.1094 48.2766ZM103.875 54.5344C101.906 54.5344 99.9609 54.5344 99.9609 53.5734V31.1672C99.9609 30.2297 101.812 30.2297 103.664 30.2297C105.492 30.2297 107.344 30.2297 107.344 31.1672V33.6984C108.68 31.4484 110.93 29.9484 113.508 29.9484C116.578 29.9484 118.266 31.425 119.578 33.7453C121.359 31.4484 123.773 29.9719 126.891 29.9484C132.938 30.0187 135.398 34.3078 135.398 39.8859V53.5734C135.398 54.5344 133.453 54.5344 131.508 54.5344C129.516 54.5344 127.57 54.5344 127.57 53.5734V40.4016C127.57 38.55 126.562 37.3547 124.898 37.3547C122.883 37.3547 121.664 38.8781 121.664 40.9641V53.5734C121.664 54.5344 119.719 54.5344 117.75 54.5344C115.781 54.5344 113.812 54.5344 113.812 53.5734V40.4016C113.812 38.55 112.805 37.3547 111.141 37.3547C109.148 37.3547 107.812 38.8547 107.812 41.0578V53.5734C107.812 54.5344 105.844 54.5344 103.875 54.5344ZM145.336 27.9797C142.125 27.9797 140.625 26.3391 140.625 23.6203C140.625 20.8781 142.125 19.2375 145.336 19.2375C148.547 19.2375 150.047 20.8781 150.047 23.6203C150.047 26.3391 148.547 27.9797 145.336 27.9797ZM145.336 54.5344C143.367 54.5344 141.398 54.5344 141.398 53.5734V31.1672C141.398 30.2062 143.367 30.2062 145.359 30.2062C147.305 30.2062 149.25 30.2062 149.25 31.1672V53.5734C149.25 54.5344 147.305 54.5344 145.336 54.5344ZM165.891 63.7687C162.961 63.7687 158.906 63.2766 156.445 61.9641C156.141 61.8234 156.023 61.4953 156.023 61.0734C156.023 60.3234 156.398 59.2453 156.773 58.2141C157.289 56.7141 157.922 55.1906 158.859 55.1906C158.977 55.1906 159.117 55.2141 159.234 55.2609C160.805 56.0344 163.523 56.5734 165.07 56.5734C167.25 56.5734 170.039 55.8469 170.039 53.1984V50.5031C168.398 52.8469 165.984 53.8547 163.734 53.8547C157.758 53.8547 153.773 48.7687 153.773 41.9016C153.773 35.0344 157.758 29.9484 163.734 29.9484C166.148 29.9484 168.75 31.1203 170.484 33.6281V31.1437C170.484 30.2062 172.336 30.2062 174.188 30.2062C176.039 30.2062 177.891 30.2062 177.891 31.1437V53.3625C177.82 60.9328 172.195 63.7687 165.891 63.7687ZM166.055 47.3625C168.656 47.3625 170.484 45.1359 170.484 42.3703C170.484 39.6047 168.656 37.3547 166.055 37.3547C163.453 37.3547 161.625 39.6047 161.625 42.3703C161.625 45.1359 163.453 47.3625 166.055 47.3625ZM194.695 54.7922C187.219 54.7922 182.555 49.2141 182.555 42.3703C182.555 35.5031 187.219 29.9484 194.695 29.9484C202.195 29.9484 206.883 35.5031 206.883 42.3703C206.883 49.2141 202.195 54.7922 194.695 54.7922ZM194.695 47.3625C197.297 47.3625 199.031 45.1125 199.031 42.3703C199.031 39.6047 197.297 37.3547 194.695 37.3547C192.117 37.3547 190.383 39.5812 190.383 42.3703C190.383 45.1359 192.117 47.3625 194.695 47.3625ZM218.344 54.7922C215.367 54.7922 212.531 54.3 210.188 52.9875C209.883 52.8234 209.766 52.5187 209.766 52.0969C209.766 51.3937 210.117 50.4094 210.562 49.3312C211.148 47.8547 211.758 46.6594 212.555 46.6594C212.695 46.6594 212.836 46.6828 212.977 46.7531C214.523 47.5969 216.938 48.2766 218.508 48.2766C220.734 48.2766 221.484 47.8078 221.484 46.8937C221.484 45.8859 220.055 45.5344 218.344 45.1125C215.133 44.3859 210.094 43.3312 210.094 37.6359C210.094 32.175 214.359 29.9484 220.312 29.9484C223.266 29.9484 225.797 30.4172 228.117 31.7531C228.398 31.9172 228.516 32.1984 228.516 32.6203C228.516 33.3 228.164 34.2844 227.742 35.3391C227.18 36.7219 226.43 38.0344 225.656 38.0344C225.539 38.0344 225.422 38.0109 225.305 37.9406C223.875 37.1437 222.094 36.4406 220.57 36.4406C218.812 36.4406 217.969 36.9797 217.969 37.8469C217.969 38.7141 219.305 39.0422 221.016 39.4406C224.297 40.1672 229.359 41.3156 229.359 47.2687C229.383 53.2687 224.391 54.7922 218.344 54.7922Z" fill="#15233B"/>
</svg>
