<?xml version="1.0" encoding="UTF-8"?>
<svg id="manager-bubble-inline" viewBox="0 0 281 434" version="1.1" xmlns="http://www.w3.org/2000/svg" xmlns:xlink="http://www.w3.org/1999/xlink">
    <defs>
        <linearGradient x1="66.493425%" y1="38.1833786%" x2="33.5141511%" y2="60.9184283%" id="mgb-linearGradient-1">
            <stop stop-color="#B2613E" offset="0%"></stop>
            <stop stop-color="#C88C59" offset="100%"></stop>
        </linearGradient>
        <linearGradient x1="0.0965543076%" y1="51.6437672%" x2="99.9550401%" y2="48.3680716%" id="mgb-linearGradient-2">
            <stop stop-color="#20283E" offset="0%"></stop>
            <stop stop-color="#36415B" stop-opacity="0" offset="73.43%"></stop>
        </linearGradient>
        <linearGradient x1="24.7476139%" y1="51.9993664%" x2="75.2657285%" y2="48.0726528%" id="mgb-linearGradient-3">
            <stop stop-color="#B2613E" offset="0%"></stop>
            <stop stop-color="#C88C59" offset="100%"></stop>
        </linearGradient>
        <linearGradient x1="0.0657654945%" y1="51.2848618%" x2="99.9113619%" y2="48.7202448%" id="mgb-linearGradient-4">
            <stop stop-color="#20283E" offset="0%"></stop>
            <stop stop-color="#36415B" stop-opacity="0" offset="73.43%"></stop>
        </linearGradient>
        <linearGradient x1="0.102802158%" y1="50.8782275%" x2="99.926674%" y2="49.0632008%" id="mgb-linearGradient-5">
            <stop stop-color="#BEC3C8" offset="0%"></stop>
            <stop stop-color="#E0E3E8" offset="100%"></stop>
        </linearGradient>
        <linearGradient x1="3.2279524%" y1="44.4130841%" x2="98.1346174%" y2="53.2358968%" id="mgb-linearGradient-6">
            <stop stop-color="#BEC3C8" offset="0%"></stop>
            <stop stop-color="#E0E3E8" offset="100%"></stop>
        </linearGradient>
        <linearGradient x1="0.119048733%" y1="50.8536266%" x2="99.9228689%" y2="49.1245369%" id="mgb-linearGradient-7">
            <stop stop-color="#20283E" offset="0%"></stop>
            <stop stop-color="#36415B" stop-opacity="0" offset="73.43%"></stop>
        </linearGradient>
        <linearGradient x1="73.650207%" y1="47.1547142%" x2="33.4518944%" y2="52.9602966%" id="mgb-linearGradient-8">
            <stop stop-color="#B2613E" offset="0%"></stop>
            <stop stop-color="#C88C59" offset="100%"></stop>
        </linearGradient>
        <linearGradient x1="68.7153261%" y1="70.4011411%" x2="47.7522166%" y2="49.5804806%" id="mgb-linearGradient-9">
            <stop stop-color="#BA564E" offset="0%"></stop>
            <stop stop-color="#C88C59" offset="100%"></stop>
        </linearGradient>
    </defs>
    <g id="chatty-manager" stroke="none" stroke-width="1" fill="none" fill-rule="evenodd">
        <g id="manager-body" transform="translate(0.000000, 52.000000)" fill-rule="nonzero">
            <path d="M141.565989,340.455253 C141.565989,340.455253 142.003644,346.258167 154.56773,353.726343 C165.068742,359.926408 170.373108,364.038214 171.910709,368.737095 C172.304665,370.091324 171.340063,371.319283 170.095999,370.925285 L109.711155,351.52432 C107.878895,350.964305 106.672878,348.866515 107.078733,346.81647 C107.762048,342.723005 109.140928,335.975453 111.156652,330.307778 C114.296471,321.571175 141.565989,340.455253 141.565989,340.455253 Z" id="Path" fill="#37538F"></path>
            <path d="M171.54776,368.92883 C171.625907,369.190187 171.768245,369.448201 171.910583,369.706214 C172.304804,371.079179 171.340538,372.323845 170.096478,371.924157 L109.711805,352.243167 C107.879556,351.67505 106.673172,349.548111 107.078552,347.469917 C107.135766,347.334222 107.1253,347.135695 107.182514,347 C112.308067,348.989117 125.710139,354.130337 135.213273,357.351252 C146.555634,361.272634 158.465252,364.965391 171.54776,368.92883 Z" id="Path" fill="#37538F"></path>
            <path d="M111.971383,331.263478 C115.034349,322.696732 141.618962,341.207535 141.618962,341.207535 C141.618962,341.207535 141.799715,343.444338 145,347 C137.028849,345.810612 131.799848,345.441106 125.216151,341.997438 C118.56986,338.557029 116.112117,335.989545 111,334.266224 C111.321544,333.222641 111.646463,332.243059 111.971383,331.263478 Z" id="Path" fill="#37538F"></path>
            <path d="M155.854179,333.916502 C182.907642,286.048016 193.487764,257.200986 187.273331,209.622385 C179.687309,151.784653 150.290364,118.577034 146.965958,115 L93,154.996118 L106.801391,171.580979 C107.48456,172.400712 137.938825,183.114951 141.779302,214.762081 C145.371336,244.119151 125.780968,300.020391 106.45608,334.193418 L148.006581,349 L155.854179,333.916502 Z" id="Path" fill="#DEE2E6"></path>
            <path d="M34.3240744,340.643209 C34.3240744,340.643209 31.9743914,346.048689 39.5797854,358.726547 C45.9210781,369.357283 48.6882776,375.552171 47.8554652,380.482244 C47.6078712,381.881907 46.0979293,382.489022 45.2130669,381.544695 L1.06519341,334.917699 C-0.295866918,333.469954 -0.356514092,331.095859 0.905791338,329.445114 C3.43040219,326.143622 7.77661801,320.832008 12.1921206,316.837477 C19.1270588,310.664321 34.3240744,340.643209 34.3240744,340.643209 Z" id="Path" fill="#37538F"></path>
            <path d="M47,379.616633 C46.9509098,379.883772 46.9680289,380.213544 46.9189387,380.480684 C46.6769116,381.882336 45.1974517,382.489697 44.329884,381.543565 L1.04509487,334.827242 C-0.289361423,333.376728 -0.34983322,330.999047 0.886489341,329.346382 C0.942427148,329.211151 1.06115039,329.072598 1.18329743,329 C4.67411141,333.180254 14.0004533,344.260535 20.6830062,351.710969 C28.8324339,360.737181 37.4875688,369.802773 47,379.616633 Z" id="Path" fill="#37538F"></path>
            <path d="M12.3497743,316.848263 C19.3079052,310.592873 34.6967081,340.986234 34.6967081,340.986234 C34.6967081,340.986234 33.770814,343.177018 35,348 C28.289235,342.861152 23.6441241,339.890535 19.2708483,333.424363 C14.894066,326.891426 13.8612642,323.330201 10,319.180462 C10.8013788,318.335166 11.6062639,317.556635 12.3497743,316.848263 Z" id="Path" fill="#37538F"></path>
            <path d="M78.7240374,126 C78.7240374,126 44.5936673,277.06404 6,317.795642 L35.3905167,345 C35.3905167,345 128.403203,223.667149 124.903669,144.977657" id="Path" fill="#DEE2E6"></path>
            <path d="M36,75.3826566 C32.0463349,81.4012727 29.1115116,86.1911769 27.8931835,88.475151 C26.6748554,90.7591251 27.9898453,93.9554575 28.0474455,97.4787491 C28.1720198,101.06384 27.524238,102.077243 28.4031782,104.251547 C28.4031782,104.251547 26.8294566,105.835784 25.3956366,104.017006 C23.9583961,102.133104 24.1364717,97.0302428 24.1364717,97.0302428 C24.1364717,97.0302428 22.8819541,99.8385247 23.5765262,104.569244 C24.2539958,108.974348 25.5997702,112.756788 24.2890885,113.28244 C21.7948321,114.327097 19.7353986,106.66386 19.7353986,106.66386 C19.7353986,106.66386 21.303506,114.679299 19.1529456,114.987662 C17.0023852,115.296025 16.1997929,109.722029 16.1997929,109.722029 C16.1997929,109.722029 16.0222657,112.408691 14.6500149,111.762128 C13.277764,111.115564 12.9249034,106.824089 12.9249034,106.824089 C12.9249034,106.824089 13.0993492,110.145365 11.7803904,109.300109 C10.4580111,108.389731 9.1147695,101.015553 10.761967,93.5503005 C12.4125849,86.1501714 19.5558362,72.912158 23.3427841,67.3593733 C27.2534187,61.7348189 36,75.3826566 36,75.3826566 Z" id="Path" fill="url(#mgb-linearGradient-1)"></path>
            <path d="M140,17.9585804 C140,17.9585804 44.3209543,-8.3345663 18,74.6056042 L31.5733369,85 C31.5733369,85 44.8216945,39.7702095 120.321758,54.5113264" id="Path" fill="#AD5B54"></path>
            <path d="M140,17.9585804 C140,17.9585804 44.3209543,-8.3345663 18,74.6056042 L31.5733369,85 C31.5733369,85 44.8216945,39.7702095 120.321758,54.5113264" id="Path" fill="url(#mgb-linearGradient-2)" opacity="0.3"></path>
            <path d="M249,33.1229498 C254.324905,28.447499 258.320606,24.6821168 260.101666,22.8430696 C261.820301,21.0072784 261.453032,17.5988121 262.275237,14.1929752 C263.097442,10.7871383 263.930641,9.96761325 263.683531,7.65230573 C263.683531,7.65230573 265.567769,6.58394227 266.432339,8.73769896 C267.296909,10.8914557 265.800316,15.7552554 265.800316,15.7552554 C265.800316,15.7552554 267.744879,13.4549749 268.246065,8.70776753 C268.705203,4.35078619 268.432219,0.35535282 269.802177,0.219223985 C272.476271,-0.11427259 272.391195,7.78016501 272.391195,7.78016501 C272.391195,7.78016501 272.96888,-0.269311243 275.111713,0.0069518565 C277.254545,0.283214956 276.544412,5.81738655 276.544412,5.81738655 C276.544412,5.81738655 277.414162,3.31447954 278.533124,4.35554097 C279.711115,5.32885132 278.867238,9.51188418 278.867238,9.51188418 C278.867238,9.51188418 279.512356,6.30930053 280.575685,7.48260802 C281.576588,8.6591716 280.905913,16.131449 277.496618,22.7118182 C274.028293,29.3599384 263.883381,39.9779474 258.850225,44.2501478 C253.754644,48.5256044 249,33.1229498 249,33.1229498 Z" id="Path" fill="url(#mgb-linearGradient-3)"></path>
            <path d="M155.279996,53.6932196 C194.854081,119.810722 268,35.4746797 268,35.4746797 L254.6399,22 C254.6399,22 207.853629,62.8684848 162.461871,23.0527103 C162.461871,23.0527103 144.904067,36.4507848 155.279996,53.6932196 Z" id="Path" fill="#AD5B54"></path>
            <path d="M155.279996,53.6932196 C194.854081,119.810722 268,35.4746797 268,35.4746797 L254.6399,22 C254.6399,22 207.853629,62.8684848 162.461871,23.0527103 C162.461871,23.0527103 144.904067,36.4507848 155.279996,53.6932196 Z" id="Path" fill="#AD5B54"></path>
            <path d="M155.279996,53.6932196 C194.854081,119.810722 268,35.4746797 268,35.4746797 L254.6399,22 C254.6399,22 207.853629,62.8684848 162.461871,23.0527103 C162.461871,23.0527103 144.904067,36.4507848 155.279996,53.6932196 Z" id="Path" fill="url(#mgb-linearGradient-4)" opacity="0.3"></path>
            <path d="M154.319419,31.6048341 L160.772172,20.4374305 L163.556913,22.2616649 C163.556913,22.2616649 183.662741,52.7232155 181.889206,70.0799335 C180.11222,87.3711876 169.580613,84.309455 167.415374,95.4504187 C166.207671,101.683855 166.19062,128.073553 166.232128,141.003219 C166.258096,152.423888 157.836619,151.746686 146.773636,153.176416 C124.200802,156.059156 96.843498,151.97034 77,131.341693 L79.1669363,116.590232 C81.3320632,90.8763495 88.5248878,65.819547 100.384823,43.0797053 L115.495283,14 L163.489624,22.1995268" id="Path" fill="#AD5B54"></path>
            <path d="M173,237 C173,237 185.902105,236.962671 186.947744,233.863815 C187.993383,230.764958 173,237 173,237 Z" id="Path" fill="url(#mgb-linearGradient-5)"></path>
            <path d="M80,241 C80,241 92.5790392,247.043048 94.8001109,244.273754 C97.0211826,241.50446 80,241 80,241 Z" id="Path" fill="url(#mgb-linearGradient-6)"></path>
            <path d="M108,77 C108,77 120.701162,84.8101 130,81.6549696 L127.579158,83.1160292 C121.202816,86.8523537 113.014757,84.8783046 109.001553,78.549044 L108,77 Z" id="Path" fill="url(#mgb-linearGradient-7)" opacity="0.3"></path>
        </g>
        <g id="manager-head" transform="translate(118.000000, 0.000000)" fill-rule="nonzero">
            <path d="M43.1745293,79.7483866 C43.2057896,80.3402729 43.8293945,82.4181074 44.0528263,83 C33.4486598,82.8920018 16.314872,77.1225055 11,67.7048725 C16.1345935,65.1956968 21.9209152,56.7834553 24.5568791,51.964225 C27.8990084,45.9212475 34.6284207,34.6902392 38.1519014,26 L63,40.4028911 C62.9359428,40.4062223 42.7565892,75.4836463 43.1745293,79.7483866 Z" id="Path" fill="url(#mgb-linearGradient-8)"></path>
            <path d="M64.9347492,9.53062848 C68.0931491,8.06479264 71.9291275,9.81769264 74.1679803,12.5647605 C76.2665746,15.0588045 77.3904964,18.3194085 77.3754926,21.6392404 C77.3380678,23.3332521 77.0509762,25.1053267 77.7061336,26.6982425 C78.1371923,27.6520176 78.8777636,28.4595383 79.4952154,29.338541 C81.4108443,31.9722587 81.8593228,35.6584646 80.6882545,38.7130183 C79.9121127,40.8359223 78.3664039,42.803608 78.8027447,45.0586973 C79.2390854,47.3137867 81.4623727,48.5648368 82.9469431,50.2447793 C85.7159795,53.4198321 85.6806898,58.7581815 82.8610791,61.8333853 C81.2418133,63.6096578 79.0085235,64.5718289 76.6948211,65.2127844 C68.5583703,67.3279716 59.9887256,64.8450459 52.1475146,61.7385243 C50.9811668,61.2785426 49.7481175,60.7569502 48.8741434,59.826208 C47.7966372,58.6457324 47.3877187,56.9098525 47.1754768,55.2939038 C46.504473,49.7970455 47.8616535,44.2597946 49.4856398,38.9689867 C52.5780692,29.046254 57.0266674,19.5736317 62.5322051,10.8920779" id="Path" fill="#AD5B54"></path>
            <path d="M37.8386929,32.1798595 C36.1130329,35.8308872 34.3873729,39.4819148 32.6651538,43.1986962 C31.5147138,45.6327146 30.3642738,48.0667331 28.6163083,50.0705732 C25.3614762,53.8018618 20.1487875,55.526013 15.2582373,54.8596203 C10.3676871,54.1932277 5.93358793,51.2611104 2.97360756,47.1966724 C1.1156554,44.6568167 -0.196383899,41.5608333 0.0241898007,38.4503427 C0.177607157,35.2774426 2.18565588,32.1390679 5.07871999,31.2619435 C6.77839365,30.7771275 8.64334753,31.0089142 10.346462,30.589852 C13.5581037,29.6960065 15.5592707,26.4261244 17.1281926,23.4426667 C18.6971144,20.4592089 20.5036941,17.1336057 23.6344161,15.9143358 C25.0120714,15.3804871 26.477528,15.3035704 27.7949086,14.8388197 C30.8687967,13.7544014 32.8165708,10.6851247 34.5835208,7.82314182 C36.3539117,5.02691267 38.4962731,2.01335709 41.6476401,1.1886095 C44.2324492,0.525467229 46.9635539,1.4370703 49.6533685,1.55962859 C54.9021259,1.74567986 60.42485,-1.37936487 65.2636677,0.74029825 C68.5991794,2.21358705 70.6034272,6.3281881 69.8369406,9.99480641 C69.4803938,11.7278129 68.6038005,13.2903118 67.6600508,14.7904011 C64.4843579,20.0340255 60.9091677,24.9689465 57.0016367,29.6575736 C53.5763031,33.7934172 49.5706482,37.8278512 44.5319019,39.2132011 C43.3987861,39.5364117 42.1916323,39.6657053 41.0843828,39.2622807" id="Path" fill="#BE6459"></path>
            <path d="M68.6067812,13 C68.6067812,13 73.9983692,16.8487413 74.6948908,22.7078953 C75.3948946,28.6323703 74.772541,33.7734704 74.0132075,37.5461186 C73.1075787,42.1778101 72.4515789,45.4866311 69.3516544,52.1963912 C66.070613,59.1119843 60.356182,62.4194255 55.33723,61.9575085 C50.8325959,61.5345932 44.8035945,60.1422095 40.4360289,53.8826921 C36.0684633,47.6231747 36.6896858,40.0586163 37.8449436,34.1040543 C39.0036835,28.2148134 39.231244,27.6790854 39.231244,27.6790854 C39.231244,27.6790854 46.3840752,29.7340717 50.9352415,22.622038 C53.9480676,17.8817789 60.8083525,18.0523248 63.3811174,17.0682642 C65.9608466,16.2148457 68.6067812,13 68.6067812,13 Z" id="Path" fill="#C88C59"></path>
            <path d="M34.8179677,28.5446585 C31.3018172,30.0434476 31.3477836,34.4209283 33.4635982,36.4370929 C35.3200852,38.1540388 38.2396477,38.0631473 39.3300004,37.943265 C39.4947734,36.4329251 39.7647566,34.6042052 40.0987565,32.8346903 C40.3883027,31.3803619 40.6876303,30.1132292 41,29.0956907 C40.24158,28.5724261 37.7363368,27.2650006 34.8179677,28.5446585 Z" id="Path" fill="#C88C59"></path>
            <path d="M55.9290912,33.6992372 C55.7783946,34.524361 55.3530909,35.0908971 54.6960445,34.987929 C53.9053786,34.8236048 53.9335073,34.1409378 54.084204,33.3158141 C54.2349006,32.4906904 54.5915525,31.8595074 55.3172506,32.0271223 C56.0392648,32.1267996 56.0797878,32.8741135 55.9290912,33.6992372 Z" id="Path" fill="#20242D"></path>
            <path d="M71.924065,37.7019241 C71.7652599,38.4911537 71.3978928,39.1489535 70.7167202,38.9705275 C69.9016095,38.7989083 69.930304,38.0873055 70.0891091,37.2980759 C70.2479142,36.5088463 70.6152813,35.8510465 71.296454,36.0294725 C72.0445956,36.2044951 72.0828701,36.9126945 71.924065,37.7019241 Z" id="Path" fill="#20242D"></path>
            <path d="M73.8804402,29.4412276 C70.9814344,28.3529624 70.0744809,29.5037979 70,30.4604361 C70,30.4604361 71.2234413,30.238868 73.4309438,30.831873 C73.6011607,30.8879153 73.7713777,30.9439577 73.9415946,31 C73.9788351,30.5216809 74.0134167,29.9755891 73.9948045,29.5011801 C73.9948045,29.5011801 73.9389518,29.5050902 73.8804402,29.4412276 Z" id="Path" fill="#715D5C"></path>
            <path d="M52,27.06882 C52,27.06882 53.3567385,25.6857574 57.0030125,26.0662244 C60.7214548,26.5126119 61.2179826,28.0150911 60.932569,29 C60.932569,29 59.6533894,28.1593563 56.9539532,27.5948186 C54.5312804,27.0864082 52,27.06882 52,27.06882 Z" id="Path" fill="#715D5C"></path>
            <path d="M55.0682897,47.5297209 C55.4514404,46.2501477 57.9411329,47.6341785 60.6395602,48.0794751 C63.3379875,48.5247717 64.0273176,48.2876193 64.8989708,49.1660238 C65.5034225,49.7944695 63.3519647,52.6958436 59.6139646,51.8450584 C55.8759644,50.9942733 54.6851391,48.809294 55.0682897,47.5297209 Z" id="Path" fill="#FFFFFF"></path>
            <path d="M51.9994454,38.4830052 C52.0340087,40.4148578 50.4484157,41.9648794 48.5167162,41.9994454 C46.5850167,42.0340114 45.0351179,40.4482928 45.0005546,38.5164402 C44.9659913,36.5845876 46.5515843,35.034566 48.4832838,35 C50.4184679,35.0319294 51.9648821,36.5511526 51.9994454,38.4830052 Z" id="Path" fill="#BA564E"></path>
            <path d="M71.0976673,41 C69.3697516,41.0253953 68.0186708,42.6131328 68,44.6099681 C68.0200504,46.1917644 68.9216906,47.5190271 70.1980936,48 C71.0810685,45.4054673 71.6280018,43.2421853 72,41.1572631 C71.7586865,41.1015997 71.4579089,41.0491787 71.0976673,41 Z" id="Path" fill="#BA564E"></path>
            <path d="M63.9103294,31 C64.2039446,35.1065766 67.3420278,41.3632467 67.8866584,43.1681067 C68.4944621,44.9698724 66.5314468,46.1126175 65.0043183,45.9911832 C63.4771897,45.869749 60,44.8626521 60,44.8626521 L63.9103294,31 Z" id="Path" fill="url(#mgb-linearGradient-9)"></path>
        </g>
    </g>
</svg>