<?xml version="1.0" encoding="UTF-8"?>
<svg viewBox="0 0 500 900" version="1.1" xmlns="http://www.w3.org/2000/svg" xmlns:xlink="http://www.w3.org/1999/xlink">
    <defs>
        <linearGradient x1="-0.000202618213%" y1="50.0000451%" x2="99.9999507%" y2="50.0000451%" id="gradient-blue">
            <stop stop-color="#15243C" offset="0%"></stop>
            <stop stop-color="#2D3F5C" offset="100%"></stop>
        </linearGradient>

        <linearGradient x1="0.00157507926%" y1="50.000181%" x2="100.001978%" y2="50.000181%" id="gradient-grey">
            <stop stop-color="#E0E5EA" offset="0%"></stop>
            <stop stop-color="#ABB4BA" offset="100%"></stop>
        </linearGradient>

        <linearGradient x1="4.78927203e-05%" y1="49.9973069%" x2="99.9979885%" y2="49.9973069%" id="gradient-yellow">
            <stop stop-color="#FDD692" offset="0%"></stop>
            <stop stop-color="#DB9302" offset="100%"></stop>
        </linearGradient>
    </defs>

    <g stroke="none" stroke-width="1" fill="none" fill-rule="evenodd">
        <g id="rocket" transform="translate(20, 100)" fill-rule="nonzero">
            <polygon fill="#004563" points="166.707474 681.4 297.537474 680.39 297.187474 638.02 166.367474 639.01"></polygon>
            <path d="M226.637474,457.78 C100.477474,458.75 -1.00252579,559.98 0.00747420902,683.9 C0.237474209,712.7 6.04747421,740.15 16.3074742,765.36 C48.8774742,681.54 131.107474,621.7 227.957474,620.96 C324.817474,620.22 408.007474,678.8 441.907474,762.1 C451.777474,736.75 457.127474,709.21 456.907474,680.41 C455.897474,556.48 352.807474,456.82 226.637474,457.78 Z" fill="url(#gradient-blue)"></path>
            <path d="M286.347474,628.05 C357.287474,645.85 415.067474,696.16 441.907474,762.09 C451.777474,736.74 457.127474,709.2 456.907474,680.4 C456.047474,576.29 383.117474,489.32 285.017474,464.76 L286.347474,628.05 Z" fill="url(#gradient-blue)"></path>
            <path d="M84.8974742,385.87 C85.7574742,491.63 109.327474,588.23 147.697474,662.98 C173.047474,654.87 200.097474,650.33 228.197474,650.12 C256.287474,649.9 283.397474,654.02 308.897474,661.74 C346.017474,586.42 368.017474,489.47 367.157474,383.72 C365.797474,215.73 307.227474,70.71 222.907474,0 C139.747474,71.99 83.5374742,217.88 84.8974742,385.87 Z" fill="url(#gradient-grey)"></path>
            <path d="M119.767474,163.24 C115.737474,174.31 113.52657,182.67 113.52657,182.67 C113.147474,182.91 232.567474,168.47 336.157474,183.34 C336.157474,183.34 330.797474,166.84 328.527474,161.67 C290.647474,125.76 171.807474,114.42 119.767474,163.24 Z" fill="#004563"></path>
            <path d="M119.727474,163.39 C153.637474,160.92 188.717474,159.31 224.207474,159.04 C259.677474,158.77 294.597474,159.7 328.527474,161.67 C303.057474,92.76 266.377474,36.46 222.917474,0.01 C180.037474,37.12 144.077474,94.1 119.727474,163.39 Z" fill="url(#gradient-yellow)"></path>
            <path d="M225.977474,214.47 L224.667474,214.47 C199.557474,214.65 175.997474,224.45 158.347474,242.07 C140.687474,259.68 131.077474,282.96 131.277474,307.61 C131.697474,357.88 173.677474,399.03 224.867474,399.33 L226.177474,399.33 C278.077474,398.93 319.967474,357.13 319.537474,306.17 C319.117474,255.9 277.147474,214.77 225.977474,214.47 Z" fill="#EEB719"></path>
            <path d="M224.787474,229.7 C181.427474,230.01 146.437474,264.93 146.777474,307.49 C147.137474,350.09 182.677474,384.43 226.037474,384.1 C269.377474,383.77 304.367474,348.89 304.017474,306.29 C303.667474,263.74 268.117474,229.36 224.787474,229.7 Z" fill="url(#gradient-blue)"></path>
            <path d="M224.337474,0.45 C215.017474,8.66 225.337474,650.67 225.337474,650.67 C226.897474,650.63 228.447474,650.56 230.017474,650.54 C257.637474,650.35 284.277474,654.48 309.347474,662.22 C345.777474,586.93 367.337474,490 366.407474,384.25 C364.947474,216.28 307.267474,71.21 224.337474,0.45 Z" fill="#CFCFCF" opacity="0.5"></path>
            <path d="M226.957474,223.35 C226.957474,225.17 225.487474,226.64 223.667474,226.64 C221.847474,226.64 220.377474,225.17 220.377474,223.35 C220.377474,221.53 221.847474,220.06 223.667474,220.06 C225.487474,220.07 226.957474,221.54 226.957474,223.35 Z" fill="#15243C"></path>
            <path d="M228.927474,391.64 C228.927474,393.46 227.457474,394.93 225.637474,394.93 C223.817474,394.93 222.347474,393.46 222.347474,391.64 C222.347474,389.82 223.817474,388.35 225.637474,388.35 C227.457474,388.35 228.927474,389.82 228.927474,391.64 Z" fill="#15243C"></path>
            <path d="M314.387474,305.52 C314.387474,307.33 312.917474,308.81 311.097474,308.81 C309.277474,308.81 307.807474,307.34 307.807474,305.52 C307.807474,303.7 309.277474,302.23 311.097474,302.23 C312.917474,302.24 314.387474,303.71 314.387474,305.52 Z" fill="#15243C"></path>
            <path d="M142.157474,307.5 C142.157474,309.32 140.687474,310.79 138.867474,310.79 C137.057474,310.79 135.577474,309.32 135.577474,307.5 C135.577474,305.68 137.047474,304.21 138.867474,304.21 C140.687474,304.21 142.157474,305.68 142.157474,307.5 Z" fill="#15243C"></path>
            <path d="M288.747474,367.32 C288.747474,369.14 287.277474,370.61 285.457474,370.61 C283.637474,370.61 282.167474,369.14 282.167474,367.32 C282.167474,365.51 283.637474,364.03 285.457474,364.03 C287.277474,364.03 288.747474,365.5 288.747474,367.32 Z" fill="#15243C"></path>
            <circle fill="#15243C" cx="167.787474" cy="245.7" r="3.29"></circle>
            <path d="M288.087474,247.02 C288.087474,248.84 286.617474,250.31 284.797474,250.31 C282.977474,250.31 281.507474,248.84 281.507474,247.02 C281.507474,245.21 282.977474,243.73 284.797474,243.73 C286.617474,243.73 288.087474,245.2 288.087474,247.02 Z" fill="#15243C"></path>
            <path d="M173.707474,370.6 C173.707474,372.41 172.237474,373.89 170.417474,373.89 C168.597474,373.89 167.127474,372.42 167.127474,370.6 C167.127474,368.78 168.597474,367.31 170.417474,367.31 C172.237474,367.32 173.707474,368.79 173.707474,370.6 Z" fill="#15243C"></path>
            <path d="M197.547474,604.46 C198.117474,674.33 210.917474,734.72 229.127474,764.28 C246.847474,734.45 258.677474,673.87 258.107474,604 C257.547474,534.14 244.727474,473.74 226.527474,444.18 C208.797474,474.02 196.977474,534.6 197.547474,604.46 Z" fill="#273C58"></path>
            <path d="M228.297474,762.83 C228.587474,763.3 228.847474,763.83 229.127474,764.28 C246.847474,734.45 258.677474,673.87 258.107474,604 C257.547474,534.14 244.727474,473.74 226.527474,444.18 C226.267474,444.64 225.997474,445.19 225.717474,445.64 L228.297474,762.83 Z" fill="#15243C"></path>
        </g>
    </g>
</svg>