<?xml version="1.0" encoding="UTF-8"?>
<svg id="sidekick-bubble-inline" viewBox="0 0 120 140" version="1.1" xmlns="http://www.w3.org/2000/svg" xmlns:xlink="http://www.w3.org/1999/xlink">
    <defs>
        <linearGradient x1="7.22867029%" y1="54.0852336%" x2="95.2904576%" y2="42.3401895%" id="skb-linearGradient-1">
            <stop stop-color="#BEC3C8" offset="0%"></stop>
            <stop stop-color="#E0E3E8" offset="100%"></stop>
        </linearGradient>
        <linearGradient x1="3.66998713%" y1="54.9993201%" x2="92.4143873%" y2="42.314771%" id="skb-linearGradient-2">
            <stop stop-color="#BEC3C8" offset="0%"></stop>
            <stop stop-color="#E0E3E8" offset="100%"></stop>
        </linearGradient>
        <linearGradient x1="38.6836193%" y1="56.7301199%" x2="58.8130141%" y2="46.5461444%" id="skb-linearGradient-3">
            <stop stop-color="#BEC3C8" offset="0%"></stop>
            <stop stop-color="#E0E3E8" offset="100%"></stop>
        </linearGradient>
        <linearGradient x1="27.4999443%" y1="70.4742798%" x2="62.8205263%" y2="38.3268278%" id="skb-linearGradient-4">
            <stop stop-color="#BEC3C8" offset="0%"></stop>
            <stop stop-color="#E0E3E8" offset="100%"></stop>
        </linearGradient>
        <linearGradient x1="40.8789285%" y1="84.7555515%" x2="57.143734%" y2="18.4714688%" id="skb-linearGradient-5">
            <stop stop-color="#BEC3C8" offset="0%"></stop>
            <stop stop-color="#E0E3E8" offset="100%"></stop>
        </linearGradient>
        <linearGradient x1="-3.13778865%" y1="67.2966881%" x2="105.506087%" y2="34.0619012%" id="skb-linearGradient-6">
            <stop stop-color="#BEC3C8" offset="0%"></stop>
            <stop stop-color="#E0E3E8" offset="100%"></stop>
        </linearGradient>
        <linearGradient x1="-0.569587152%" y1="54.6279056%" x2="99.3825808%" y2="45.4126468%" id="skb-linearGradient-7">
            <stop stop-color="#1F293E" offset="22.1%"></stop>
            <stop stop-color="#222C40" offset="26.04%"></stop>
            <stop stop-color="#2E3951" offset="46.75%"></stop>
            <stop stop-color="#35415B" offset="64.79%"></stop>
            <stop stop-color="#39445F" offset="78.05%"></stop>
        </linearGradient>
        <linearGradient x1="-0.450322389%" y1="54.7706199%" x2="99.494792%" y2="45.5560114%" id="skb-linearGradient-8">
            <stop stop-color="#1F293E" offset="22.1%"></stop>
            <stop stop-color="#222C40" offset="26.04%"></stop>
            <stop stop-color="#2E3951" offset="46.75%"></stop>
            <stop stop-color="#35415B" offset="64.79%"></stop>
            <stop stop-color="#39445F" offset="78.05%"></stop>
        </linearGradient>
        <linearGradient x1="3.91382196%" y1="59.8959148%" x2="98.0279935%" y2="35.977742%" id="skb-linearGradient-9">
            <stop stop-color="#1F293E" offset="22.1%"></stop>
            <stop stop-color="#222C40" offset="26.04%"></stop>
            <stop stop-color="#2E3951" offset="46.75%"></stop>
            <stop stop-color="#35415B" offset="64.79%"></stop>
            <stop stop-color="#39445F" offset="78.05%"></stop>
        </linearGradient>
        <linearGradient x1="46.878613%" y1="51.9825968%" x2="53.5078256%" y2="47.8312413%" id="skb-linearGradient-10">
            <stop stop-color="#1F293E" offset="22.1%"></stop>
            <stop stop-color="#222C40" offset="26.04%"></stop>
            <stop stop-color="#2E3951" offset="46.75%"></stop>
            <stop stop-color="#35415B" offset="64.79%"></stop>
            <stop stop-color="#39445F" offset="78.05%"></stop>
        </linearGradient>
        <linearGradient x1="23.882816%" y1="59.7800474%" x2="63.2606846%" y2="41.7266884%" id="skb-linearGradient-11">
            <stop stop-color="#BA584F" offset="0%"></stop>
            <stop stop-color="#E0A283" offset="100%"></stop>
        </linearGradient>
        <linearGradient x1="42.4571065%" y1="54.3933585%" x2="57.2626786%" y2="45.6672137%" id="skb-linearGradient-12">
            <stop stop-color="#1F293E" offset="22.1%"></stop>
            <stop stop-color="#222C40" offset="26.04%"></stop>
            <stop stop-color="#2E3951" offset="46.75%"></stop>
            <stop stop-color="#35415B" offset="64.79%"></stop>
            <stop stop-color="#39445F" offset="78.05%"></stop>
        </linearGradient>
    </defs>
    <g id="chatty-sidekick" stroke="none" stroke-width="1" fill="none" fill-rule="evenodd">
        <g id="sidekick-body" transform="translate(0.881250, 12.300000)">
            <path d="M0.01875,14.1 L3.51875,28.3 C3.61875,28.8 4.11875,29.1 4.61875,29 L15.11875,26.4 C15.61875,26.3 15.91875,25.8 15.81875,25.3 L15.01875,21.8 L18.81875,14.7 C18.91875,14.6 18.81875,14.4 18.71875,14.4 L16.11875,13 C16.01875,12.9 15.81875,13 15.81875,13.1 L13.91875,16.7 L12.51875,11.1 C12.41875,10.6 11.91875,10.3 11.41875,10.4 L0.91875,13 C0.21875,13.1 -0.08125,13.6 0.01875,14.1 Z" id="Path" fill="#1F293E" fill-rule="nonzero"></path>
            <path d="M34.61875,49 C29.91875,50.2 24.81875,50.5 19.91875,48.9 C11.31875,46 5.61875,38.3 2.81875,25.8 L15.31875,23 C17.11875,30.8 20.01875,35.4 24.01875,36.8 C31.41875,39.3 43.01875,31.5 46.51875,28.6 L54.71875,38.4 C53.41875,39.4 44.91875,46.4 34.61875,49 Z" id="Path" fill="url(#skb-linearGradient-1)" fill-rule="nonzero"></path>
            <path d="M118.51875,57 L111.31875,44.3 C111.11875,43.9 110.51875,43.7 110.11875,44 L100.71875,49.4 C100.31875,49.6 100.11875,50.2 100.41875,50.6 L102.21875,53.7 L100.61875,61.6 C100.61875,61.7 100.71875,61.9 100.81875,61.9 L103.71875,62.5 C103.81875,62.5 104.01875,62.4 104.01875,62.3 L104.81875,58.3 L107.61875,63.3 C107.81875,63.7 108.41875,63.9 108.81875,63.6 L118.21875,58.2 C118.51875,58 118.71875,57.4 118.51875,57 Z" id="Path" fill="#1F293E" fill-rule="nonzero"></path>
            <path d="M78.81875,43.2 L76.71875,42.4 L79.11875,37 C83.71875,26.5 80.51875,14.2 71.31875,7.2 L64.11875,1.7 L65.51875,2.84217094e-14 L72.71875,5.5 C82.71875,13.1 86.21875,26.4 81.21875,37.8 L78.81875,43.2 Z" id="Path" fill="#1F293E" fill-rule="nonzero"></path>
            <path d="M100.51875,51.5 C93.71875,38.9 71.71875,37 63.81875,37.3 L63.31875,24.5 C64.81875,24.4 99.81875,23.2 111.81875,45.4 L100.51875,51.5 Z" id="Path" fill="url(#skb-linearGradient-2)" fill-rule="nonzero"></path>
            <path d="M101.51875,53.2 L107.61875,50.4 C97.81875,34.3 75.01875,30.7 66.01875,29.8 L65.81875,36.5 C73.81875,36.8 95.61875,40.2 101.51875,53.2 Z" id="Path" fill="#1F293E" fill-rule="nonzero" opacity="0.1"></path>
            <path d="M36.11875,44.8 C31.41875,46 26.31875,46.3 21.41875,44.7 C13.71875,42.1 8.31875,35.6 5.21875,25.3 L2.81875,25.8 C5.61875,38.2 11.41875,46 19.91875,48.9 C24.81875,50.5 29.91875,50.3 34.61875,49 C44.81875,46.4 53.31875,39.4 54.61875,38.3 L53.01875,36.4 C49.51875,39.1 43.21875,43 36.11875,44.8 Z" id="Path" fill="#1F293E" fill-rule="nonzero" opacity="0.1"></path>
            <path d="M58.81875,113.1 C46.31875,103 40.71875,96.6 39.61875,84.7 C38.31875,70.3 46.21875,60.7 47.11875,59.6 L59.21875,70 L59.31875,69.9 C59.11875,70.1 54.81875,75.5 55.61875,83.4 C56.41875,90.7 60.31875,97.5 69.21875,104.7 L65.01875,118.3 L58.81875,113.1 Z" id="Path" fill="url(#skb-linearGradient-3)" fill-rule="nonzero"></path>
            <path d="M68.81875,104.6 C64.01875,100.5 61.31875,97.4 59.31875,94.3 C57.81875,91.9 56.61875,89.4 56.01875,86.3 C54.51875,78.5 57.11875,72.7 57.21875,72.4 L58.41875,72.6 L53.21875,68.9 C51.71875,73.3 50.71875,79.3 51.91875,86.3 C53.81875,97.2 59.01875,102.9 70.41875,110.9 L68.81875,104.6 Z" id="Path" fill="#1F293E" fill-rule="nonzero" opacity="0.09"></path>
            <path d="M43.11875,94.7 L49.51875,93.1 C49.41875,93 46.61875,96.9 43.11875,94.7 Z" id="Path" fill="#1F293E" fill-rule="nonzero" opacity="0.09"></path>
            <path d="M54.71875,80.8 L39.31875,71.7 C39.21875,71.6 39.11875,71.5 39.21875,71.4 L40.71875,68.9 C40.81875,68.8 40.91875,68.7 41.01875,68.8 L56.41875,77.9 C56.51875,78 56.61875,78.1 56.51875,78.2 L55.01875,80.7 C55.01875,80.8 54.81875,80.9 54.71875,80.8 Z" id="Path" fill="#E8B42A" fill-rule="nonzero"></path>
            <path d="M103.21875,100.3 C87.21875,98.4 79.11875,96 71.91875,86.6 C63.11875,75.1 64.61875,62.8 64.81875,61.4 L80.61875,63.7 L80.61875,63.6 C80.61875,63.9 79.81875,70.8 84.71875,77 C89.21875,82.8 96.21875,86.4 107.61875,87.8 L111.31875,101.5 L103.21875,100.3 Z" id="Path" fill="url(#skb-linearGradient-4)" fill-rule="nonzero"></path>
            <path d="M107.11875,87.8 C100.81875,86.9 96.91875,85.7 93.51875,84.1 C90.91875,82.9 88.61875,81.5 86.41875,79.1 C81.01875,73.3 80.01875,67 80.01875,66.7 L81.11875,66.2 L74.71875,65.8 C75.81875,70.3 78.21875,76 82.91875,81.1 C90.31875,89.2 97.81875,91.3 111.71875,92 L107.11875,87.8 Z" id="Path" fill="#1F293E" fill-rule="nonzero" opacity="0.09"></path>
            <path d="M80.01875,93.1 L84.51875,88.3 C84.51875,88.3 84.11875,93.1 80.01875,93.1 Z" id="Path" fill="#1F293E" fill-rule="nonzero" opacity="0.09"></path>
            <path d="M113.41875,88 L110.11875,87.3 C109.01875,87.1 108.01875,87.3 107.11875,87.8 C108.31875,88.6 108.61875,91.5 107.71875,94.7 C106.71875,98.2 104.71875,100.7 103.21875,100.3 C103.11875,100.3 103.01875,100.2 102.91875,100.2 L101.91875,105.4 C101.41875,107.8 103.01875,110.2 105.41875,110.7 L108.71875,111.4 C111.11875,111.9 113.51875,110.3 114.01875,107.9 L116.91875,93.4 C117.51875,90.9 115.91875,88.5 113.41875,88 Z" id="Path" fill="#1F293E" fill-rule="nonzero"></path>
            <path d="M101.81875,105.9 L106.81875,105.9 C107.31875,105.9 107.61875,105.5 107.61875,105.1 L107.61875,105.1 C107.61875,104.6 107.21875,104.3 106.81875,104.3 L102.11875,104.3 L101.91875,105.3 C101.81875,105.5 101.81875,105.7 101.81875,105.9 Z" id="Path" fill="#E8B42A" fill-rule="nonzero"></path>
            <path d="M106.01875,103.1 C106.51875,103.1 106.81875,102.7 106.81875,102.3 C106.81875,101.8 106.41875,101.5 106.01875,101.5 L102.61875,101.5 L102.31875,103.2 L106.01875,103.1 Z" id="Path" fill="#E8B42A" fill-rule="nonzero"></path>
            <path d="M114.11875,107.8 L117.01875,93.3 C117.31875,91.5 116.61875,89.8 115.31875,88.8 L110.81875,111.3 C112.41875,110.9 113.71875,109.5 114.11875,107.8 Z" id="Path" fill="url(#skb-linearGradient-5)" fill-rule="nonzero"></path>
            <path d="M102.91875,100.2 C102.91875,100.2 103.81875,100.7 105.01875,99.6 C106.41875,98.1 108.81875,94.2 108.01875,89.4 C107.91875,88.7 107.71875,88.3 107.11875,87.7" id="Path" stroke="#E8B42A" stroke-linecap="round"></path>
            <path d="M85.11875,45.4 C89.01875,60.4 84.91875,72.4 67.61875,76.9 C50.31875,81.3 41.41875,74.6 37.61875,59.5 C33.71875,44.5 37.01875,30.6 54.31875,26.2 C71.61875,21.8 81.31875,30.4 85.11875,45.4 Z" id="Path" fill="#DEE2E6" fill-rule="nonzero"></path>
            <path d="M48.41875,37 L47.21875,37.3 C47.11875,37.3 47.11875,37.3 47.11875,37.2 L46.21875,33.6 C46.21875,33.5 46.21875,33.5 46.31875,33.5 L47.51875,33.2 C47.61875,33.2 47.61875,33.2 47.61875,33.3 L48.51875,36.9 C48.51875,36.9 48.51875,37 48.41875,37 Z" id="Path" fill="#1F293E" fill-rule="nonzero"></path>
            <path d="M92.81875,34.9 L95.21875,31.9 C95.11875,32 95.91875,35.4 92.81875,34.9 Z" id="Path" fill="#1F293E" fill-rule="nonzero" opacity="0.09"></path>
            <path d="M20.11875,43.8 L22.51875,40.8 C22.51875,40.8 23.21875,44.2 20.11875,43.8 Z" id="Path" fill="#1F293E" fill-rule="nonzero" opacity="0.09"></path>
            <path d="M66.71875,25.4 C71.61875,28.9 74.91875,34.7 76.81875,42.1 C80.71875,57.1 76.61875,69.1 59.31875,73.6 C54.31875,74.9 50.01875,75.2 46.31875,74.7 C51.31875,78.4 58.21875,79.3 67.61875,76.9 C84.91875,72.5 89.01875,60.5 85.11875,45.4 C82.31875,34.4 76.41875,26.9 66.71875,25.4 Z" id="Path" fill="#1F293E" fill-rule="nonzero" opacity="0.09"></path>
            <path d="M81.01875,67.7 L82.31875,70.4 C82.41875,70.5 82.31875,70.7 82.21875,70.7 L66.01875,78.3 C65.91875,78.4 65.71875,78.3 65.71875,78.2 L64.41875,75.5 C64.31875,75.4 64.41875,75.2 64.51875,75.2 L80.71875,67.6 C80.81875,67.5 80.91875,67.5 81.01875,67.7 Z" id="Path" fill="#E8B42A" fill-rule="nonzero"></path>
            <path d="M112.21875,45.6 L99.91875,51.9 C99.81875,51.9 99.81875,51.9 99.71875,51.9 L99.11875,50.7 C99.11875,50.7 99.11875,50.6 99.11875,50.5 L111.41875,44.2 C111.41875,44.2 111.51875,44.2 111.61875,44.2 L112.21875,45.4 C112.31875,45.5 112.31875,45.6 112.21875,45.6 Z" id="Path" fill="#E8B42A" fill-rule="nonzero"></path>
            <path d="M16.11875,23.7 L2.51875,26.2 C2.41875,26.2 2.41875,26.2 2.41875,26.1 L2.11875,24.7 C2.11875,24.6 2.11875,24.6 2.21875,24.6 L15.81875,22.1 C15.91875,22.1 15.91875,22.1 15.91875,22.2 L16.21875,23.6 C16.21875,23.7 16.11875,23.7 16.11875,23.7 Z" id="Path" fill="#E8B42A" fill-rule="nonzero"></path>
            <path d="M59.11875,35.4 C61.91875,34.7 64.81875,36.4 65.61875,39.2 C66.41875,42 64.61875,44.9 61.81875,45.7 C59.01875,46.4 56.11875,44.7 55.31875,41.9 C54.61875,39 56.31875,36.1 59.11875,35.4 Z" id="Path" fill="#E8B42A" fill-rule="nonzero"></path>
            <path d="M58.41875,43.9 C58.41875,43.9 58.41875,43.8 58.41875,43.9 C58.31875,43.6 58.41875,43.4 58.51875,43.1 C58.61875,42.8 58.81875,42.4 59.01875,42.4 C59.01875,42.4 59.11875,42.4 59.11875,42.4 C59.51875,42.6 60.31875,42.8 60.81875,42.6 C61.41875,42.4 61.71875,42.2 61.61875,41.9 C61.51875,41.6 61.01875,41.5 60.51875,41.4 C59.51875,41.3 58.01875,41 57.71875,39.7 C57.41875,38.4 58.21875,37.2 59.81875,36.8 C60.81875,36.6 61.71875,36.7 62.31875,37 C62.31875,37 62.41875,37.1 62.41875,37.1 C62.41875,37.3 62.41875,37.6 62.31875,37.8 C62.21875,38.2 62.01875,38.6 61.81875,38.6 C61.81875,38.6 61.71875,38.6 61.71875,38.6 C61.31875,38.5 60.71875,38.4 60.31875,38.5 C59.71875,38.6 59.61875,38.9 59.61875,39.1 C59.71875,39.4 60.11875,39.4 60.61875,39.5 C61.61875,39.6 63.21875,39.8 63.61875,41.3 C63.91875,42.6 62.91875,43.8 61.31875,44.2 C60.31875,44.5 59.21875,44.4 58.41875,43.9 Z" id="Path" fill="#1F273B" fill-rule="nonzero"></path>
            <path d="M46.51875,30.5 C46.51875,30.5 43.71875,63.2 56.71875,78.3" id="Path" stroke="#1F293E" stroke-width="0.25"></path>
            <path d="M74.11875,108.2 L71.61875,105.8 C70.81875,105 69.81875,104.6 68.81875,104.6 C69.31875,105.9 68.01875,108.6 65.61875,110.8 C62.91875,113.3 59.91875,114.3 58.81875,113.1 C58.71875,113 58.71875,113 58.61875,112.9 L55.01875,116.7 C53.31875,118.5 53.41875,121.4 55.21875,123.1 L57.71875,125.5 C59.51875,127.2 62.41875,127.1 64.11875,125.3 L74.31875,114.6 C75.91875,112.8 75.91875,109.9 74.11875,108.2 Z" id="Path" fill="#1F293E" fill-rule="nonzero"></path>
            <path d="M54.61875,117.1 L58.81875,119.8 C59.21875,120.1 59.71875,119.9 59.91875,119.6 L59.91875,119.6 C60.21875,119.2 60.01875,118.7 59.71875,118.5 L55.71875,115.9 L55.01875,116.7 C54.91875,116.8 54.81875,117 54.61875,117.1 Z" id="Path" fill="#E8B42A" fill-rule="nonzero"></path>
            <path d="M59.71875,117 C60.11875,117.3 60.61875,117.1 60.81875,116.8 C61.11875,116.4 60.91875,115.9 60.61875,115.7 L57.71875,113.8 L56.51875,115 L59.71875,117 Z" id="Path" fill="#E8B42A" fill-rule="nonzero"></path>
            <path d="M64.01875,125.3 L74.21875,114.6 C75.41875,113.3 75.71875,111.4 75.11875,109.9 L59.31875,126.5 C60.91875,127 62.81875,126.6 64.01875,125.3 Z" id="Path" fill="url(#skb-linearGradient-6)" fill-rule="nonzero"></path>
            <path d="M58.61875,112.9 C58.61875,112.9 59.11875,113.8 60.71875,113.5 C62.71875,113 66.81875,110.9 68.71875,106.5 C69.01875,105.8 69.01875,105.4 68.81875,104.6" id="Path" stroke="#E8B42A" stroke-linecap="round"></path>
        </g>
        <g id="sidekick-head" transform="translate(28.922254, 0.180619)" fill-rule="nonzero">
            <path d="M38.4777461,40.4193815 L16.5777461,46.0193815 C16.4777461,46.0193815 16.3777461,46.0193815 16.2777461,45.8193815 L15.6777461,43.4193815 C15.6777461,43.3193815 15.6777461,43.2193815 15.8777461,43.1193815 L37.7777461,37.5193815 C37.8777461,37.5193815 37.9777461,37.5193815 38.0777461,37.7193815 L38.6777461,40.1193815 C38.5777461,40.2193815 38.5777461,40.4193815 38.4777461,40.4193815 Z" id="Path" fill="#B2BEC9"></path>
            <path d="M37.6777461,37.6193815 L15.7777461,43.2193815 C15.6777461,43.2193815 15.5777461,43.2193815 15.4777461,43.0193815 L14.8777461,40.6193815 C14.8777461,40.5193815 14.8777461,40.4193815 15.0777461,40.3193815 L36.9777461,34.7193815 C37.0777461,34.7193815 37.1777461,34.7193815 37.2777461,34.9193815 L37.8777461,37.3193815 C37.8777461,37.5193815 37.7777461,37.6193815 37.6777461,37.6193815 Z" id="Path" fill="#B2BEC9"></path>
            <path d="M36.4777461,35.0193815 C36.4777461,35.0193815 36.4777461,35.0193815 36.4777461,35.0193815 L36.7777461,36.2193815 C36.8777461,36.7193815 36.5777461,37.1193815 35.9777461,37.3193815 L15.6777461,42.5193815 C15.5777461,42.5193815 15.4777461,42.5193815 15.3777461,42.5193815 C15.4777461,42.9193815 16.0777461,43.1193815 16.5777461,43.0193815 L36.8777461,37.8193815 C37.3777461,37.7193815 37.7777461,37.2193815 37.6777461,36.7193815 L37.3777461,35.6193815 C37.2777461,35.2193815 36.8777461,35.0193815 36.4777461,35.0193815 Z" id="Path" fill="url(#skb-linearGradient-7)" opacity="0.19"></path>
            <path d="M37.1777461,37.7193815 C37.1777461,37.8193815 37.2777461,37.8193815 37.1777461,37.7193815 L37.4777461,38.9193815 C37.5777461,39.4193815 37.2777461,39.8193815 36.6777461,40.0193815 L16.3777461,45.2193815 C16.2777461,45.2193815 16.1777461,45.2193815 16.0777461,45.2193815 C16.1777461,45.6193815 16.7777461,45.8193815 17.2777461,45.7193815 L37.5777461,40.5193815 C38.0777461,40.4193815 38.4777461,39.9193815 38.3777461,39.4193815 L38.0777461,38.3193815 C37.9777461,38.0193815 37.6777461,37.7193815 37.1777461,37.7193815 Z" id="Path" fill="url(#skb-linearGradient-8)" opacity="0.19"></path>
            <path d="M16.8777461,2.51938148 C26.9777461,-0.0806185204 37.2777461,5.91938148 39.7777461,15.9193815 C42.3777461,25.9193815 36.2777461,36.1193815 26.0777461,38.7193815 C15.9777461,41.3193815 5.6777461,35.3193815 3.1777461,25.3193815 C0.677746097,15.3193815 6.7777461,5.01938148 16.8777461,2.51938148 Z" id="Path" fill="#E0A283"></path>
            <path d="M29.4777461,28.7193815 C28.8777461,28.2193815 28.4777461,27.4193815 28.1777461,26.6193815 C27.5777461,24.3193815 28.9777461,21.9193815 31.2777461,21.3193815 C33.5777461,20.7193815 35.9777461,22.1193815 36.5777461,24.4193815 C37.1777461,26.7193815 35.7777461,29.1193815 33.4777461,29.7193815 C32.0777461,30.1193815 30.5777461,29.7193815 29.4777461,28.7193815" id="Path" fill="#BF6559"></path>
            <path d="M4.9777461,29.0193815 C5.5777461,28.3193815 6.2777461,27.8193815 7.1777461,27.6193815 C9.4777461,27.0193815 11.8777461,28.4193815 12.4777461,30.7193815 C13.0777461,33.0193815 11.6777461,35.4193815 9.3777461,36.0193815" id="Path" fill="#BF6559"></path>
            <path d="M11.1777461,3.01938148 C10.7777461,4.01938148 10.6777461,5.31938148 10.9777461,6.71938148 L11.1777461,7.41938148 C11.7777461,9.91938148 13.6777461,11.6193815 15.3777461,11.2193815 L18.5777461,10.4193815 C20.2777461,10.0193815 21.0777461,7.61938148 20.4777461,5.01938148 L20.2777461,4.31938148 C20.0777461,3.31938148 19.5777461,2.51938148 19.0777461,1.91938148 C17.3777461,1.41938148 15.6777461,1.31938148 13.9777461,1.81938148 C12.9777461,2.01938148 12.0777461,2.41938148 11.1777461,3.01938148 Z" id="Path" fill="url(#skb-linearGradient-9)" opacity="0.11"></path>
            <path d="M4.2777461,31.4193815 L2.7777461,31.8193815 C2.6777461,31.8193815 2.6777461,31.7193815 2.5777461,31.6193815 L0.0777460969,21.9193815 C0.0777460969,21.8193815 0.0777460969,21.7193815 0.177746097,21.7193815 L1.6777461,21.3193815 C1.7777461,21.3193815 1.7777461,21.4193815 1.8777461,21.5193815 L4.3777461,31.2193815 C4.3777461,31.3193815 4.3777461,31.4193815 4.2777461,31.4193815 Z" id="Path" fill="#B2BEC9"></path>
            <path d="M4.2777461,31.4193815 L2.7777461,31.8193815 C2.6777461,31.8193815 2.6777461,31.7193815 2.5777461,31.6193815 L0.0777460969,21.9193815 C0.0777460969,21.8193815 0.0777460969,21.7193815 0.177746097,21.7193815 L1.6777461,21.3193815 C1.7777461,21.3193815 1.7777461,21.4193815 1.8777461,21.5193815 L4.3777461,31.2193815 C4.3777461,31.3193815 4.3777461,31.4193815 4.2777461,31.4193815 Z" id="Path" fill="url(#skb-linearGradient-10)" opacity="0.19"></path>
            <path d="M2.4777461,26.5193815 C3.1777461,29.3193815 3.3777461,31.6193815 2.8777461,31.8193815 C2.3777461,31.9193815 1.3777461,29.8193815 0.677746097,27.0193815 C-0.0222539031,24.2193815 -0.222253903,21.9193815 0.277746097,21.7193815 C0.777746097,21.6193815 1.7777461,23.8193815 2.4777461,26.5193815 Z" id="Path" fill="#B2BEC9"></path>
            <path d="M16.4777461,1.11938148 C5.5777461,3.91938148 -0.922253903,15.0193815 1.8777461,25.9193815 C4.6777461,36.8193815 15.7777461,43.4193815 26.6777461,40.6193815 C37.5777461,37.8193815 44.0777461,26.7193815 41.2777461,15.8193815 C38.4777461,4.91938148 27.3777461,-1.68061852 16.4777461,1.11938148 Z M33.8777461,24.1193815 C34.8777461,27.8193815 32.5777461,31.7193815 28.8777461,32.6193815 L15.9777461,35.9193815 C12.2777461,36.9193815 8.3777461,34.6193815 7.4777461,30.8193815 L5.4777461,22.8193815 C4.4777461,19.1193815 6.7777461,15.2193815 10.5777461,14.3193815 L23.3777461,11.0193815 C27.0777461,10.0193815 30.9777461,12.3193815 31.8777461,16.1193815 L33.8777461,24.1193815 Z" id="Shape" fill="#DEE2E6"></path>
            <path d="M20.5777461,9.81938148 L12.1777461,11.9193815 C11.9777461,12.0193815 11.6777461,11.7193815 11.4777461,11.3193815 L9.2777461,2.91938148 C9.1777461,2.51938148 9.2777461,2.11938148 9.5777461,2.11938148 L17.9777461,0.0193814796 C18.2777461,-0.0806185204 18.4777461,0.21938148 18.6777461,0.61938148 L20.8777461,9.01938148 C20.9777461,9.41938148 20.7777461,9.71938148 20.5777461,9.81938148 Z" id="Path" fill="#B3C4CF"></path>
            <path d="M23.0777461,19.5193815 C23.1777461,19.7193815 23.1777461,19.9193815 22.9777461,20.0193815 C22.7777461,20.1193815 22.6777461,19.9193815 22.5777461,19.7193815 C22.4777461,19.5193815 22.4777461,19.3193815 22.6777461,19.2193815 C22.7777461,19.1193815 22.9777461,19.2193815 23.0777461,19.5193815 Z" id="Path" fill="#272244"></path>
            <path d="M10.6777461,22.9193815 C10.7777461,23.1193815 10.7777461,23.3193815 10.5777461,23.4193815 C10.3777461,23.5193815 10.2777461,23.3193815 10.1777461,23.1193815 C10.0777461,22.9193815 10.0777461,22.7193815 10.2777461,22.6193815 C10.4777461,22.6193815 10.5777461,22.7193815 10.6777461,22.9193815 Z" id="Path" fill="#272244"></path>
            <path d="M14.9777461,31.4193815 C14.6777461,30.0193815 17.7777461,30.0193815 20.4777461,29.0193815 C23.1777461,28.0193815 24.7777461,26.7193815 25.8777461,27.4193815 C26.9777461,28.1193815 25.4777461,31.9193815 21.4777461,33.0193815 C17.4777461,34.2193815 15.3777461,32.8193815 14.9777461,31.4193815 Z" id="Path" fill="#09090A"></path>
            <path d="M8.1777461,21.2193815 C8.0777461,21.2193815 7.8777461,21.2193815 7.7777461,21.1193815 C7.5777461,20.9193815 7.4777461,20.7193815 7.6777461,20.4193815 C8.0777461,19.8193815 8.6777461,19.3193815 9.3777461,19.0193815 C10.0777461,18.7193815 10.7777461,18.6193815 11.5777461,18.7193815 C11.8777461,18.7193815 11.9777461,19.0193815 11.9777461,19.3193815 C11.9777461,19.6193815 11.6777461,19.7193815 11.3777461,19.7193815 C10.7777461,19.6193815 10.2777461,19.7193815 9.6777461,19.9193815 C9.1777461,20.1193815 8.6777461,20.5193815 8.3777461,21.0193815 C8.3777461,21.1193815 8.2777461,21.1193815 8.1777461,21.2193815 Z" id="Path" fill="#272244"></path>
            <path d="M23.4777461,17.0193815 C23.3777461,17.0193815 23.2777461,17.0193815 23.1777461,17.0193815 C22.6777461,16.8193815 22.0777461,16.8193815 21.4777461,16.9193815 C20.8777461,17.0193815 20.3777461,17.3193815 19.9777461,17.7193815 C19.7777461,17.9193815 19.4777461,17.9193815 19.2777461,17.7193815 C19.0777461,17.5193815 19.0777461,17.2193815 19.2777461,17.0193815 C19.7777461,16.5193815 20.4777461,16.1193815 21.2777461,16.0193815 C21.9777461,15.8193815 22.7777461,15.9193815 23.4777461,16.1193815 C23.6777461,16.2193815 23.8777461,16.5193815 23.7777461,16.7193815 C23.6777461,16.9193815 23.5777461,17.0193815 23.4777461,17.0193815 Z" id="Path" fill="#272244"></path>
            <path d="M14.5777461,25.7193815 C14.5777461,26.0193815 14.5777461,26.3193815 14.6777461,26.5193815 C14.7777461,26.8193815 15.1777461,27.1193815 15.4777461,27.1193815 C15.8777461,27.1193815 16.1777461,26.9193815 16.3777461,26.6193815 C16.4777461,27.0193815 16.9777461,27.2193815 17.3777461,27.1193815 C17.7777461,27.0193815 18.0777461,26.5193815 17.8777461,26.1193815 C18.1777461,26.4193815 18.6777461,26.7193815 19.0777461,26.5193815 C19.2777461,26.4193815 19.4777461,26.1193815 19.3777461,25.8193815 C19.3777461,25.5193815 19.2777461,25.3193815 19.0777461,25.0193815 C18.1777461,23.3193815 17.1777461,21.7193815 15.9777461,20.2193815 C15.8777461,20.0193815 15.6777461,19.8193815 15.4777461,19.7193815 C14.4777461,19.2193815 14.7777461,21.6193815 14.7777461,22.1193815 C14.6777461,23.3193815 14.6777461,24.5193815 14.5777461,25.7193815 Z" id="Path" fill="url(#skb-linearGradient-11)"></path>
            <path d="M25.8777461,29.5193815 C24.6777461,29.3193815 23.1777461,29.3193815 21.5777461,29.8193815 C18.9777461,30.5193815 16.9777461,31.8193815 16.5777461,33.1193815 C17.6777461,33.6193815 19.2777461,33.7193815 21.4777461,33.1193815 C23.7777461,32.4193815 25.2777461,30.8193815 25.8777461,29.5193815 Z" id="Path" fill="#BF6559"></path>
            <path d="M14.6777461,9.01938148 L12.8777461,9.51938148 C12.7777461,9.51938148 12.6777461,9.41938148 12.6777461,9.31938148 L11.3777461,4.11938148 C11.3777461,4.01938148 11.3777461,3.91938148 11.4777461,3.81938148 L13.2777461,3.31938148 C13.3777461,3.31938148 13.4777461,3.41938148 13.4777461,3.51938148 L14.7777461,8.71938148 C14.7777461,8.91938148 14.6777461,9.01938148 14.6777461,9.01938148 Z" id="Path" fill="#DEE2E7" opacity="0.35"></path>
            <path d="M41.9777461,15.4193815 C42.7777461,18.3193815 42.5777461,21.0193815 41.4777461,21.2193815 C40.4777461,21.5193815 39.0777461,19.3193815 38.2777461,16.3193815 C37.4777461,13.4193815 37.6777461,10.7193815 38.7777461,10.5193815 C39.8777461,10.3193815 41.1777461,12.5193815 41.9777461,15.4193815 Z" id="Path" fill="#B2BEC9"></path>
            <path d="M39.9777461,15.9193815 C40.7777461,18.8193815 40.5777461,21.5193815 39.4777461,21.7193815 C38.3777461,21.9193815 37.0777461,19.8193815 36.2777461,16.8193815 C35.4777461,13.9193815 35.6777461,11.2193815 36.7777461,11.0193815 C37.7777461,10.8193815 39.1777461,13.0193815 39.9777461,15.9193815 Z" id="Path" fill="#B2BEC9"></path>
            <polygon id="Path" fill="#B2BEC9" points="39.4777461 21.7193815 41.4777461 21.1193815 38.7777461 10.5193815 36.7777461 11.0193815"></polygon>
            <path d="M41.9777461,15.4193815 C42.7777461,18.3193815 42.5777461,21.0193815 41.4777461,21.2193815 C40.4777461,21.5193815 39.0777461,19.3193815 38.2777461,16.3193815 C37.4777461,13.4193815 37.6777461,10.7193815 38.7777461,10.5193815 C39.8777461,10.3193815 41.1777461,12.5193815 41.9777461,15.4193815 Z" id="Path" fill="url(#skb-linearGradient-12)" opacity="0.19"></path>
        </g>
    </g>
</svg>