<?xml version="1.0" encoding="UTF-8"?>
<svg viewBox="0 0 733 830" version="1.1" xmlns="http://www.w3.org/2000/svg"
     xmlns:xlink="http://www.w3.org/1999/xlink">
    <title>sidekick</title>
    <defs>
        <linearGradient x1="0.00105372602%" y1="49.998357%" x2="100.001764%" y2="49.998357%"
                        id="linearGradient-sidekick-1">
            <stop stop-color="#BDC2C8" offset="0%"></stop>
            <stop stop-color="#E0E4E9" offset="100%"></stop>
        </linearGradient>
        <linearGradient x1="-0.00312148833%" y1="49.9971762%" x2="99.9941316%" y2="49.9971762%"
                        id="linearGradient-sidekick-2">
            <stop stop-color="#BDC2C8" offset="0%"></stop>
            <stop stop-color="#E0E4E9" offset="100%"></stop>
        </linearGradient>
        <linearGradient x1="0.00430747743%" y1="50.0019286%" x2="99.9990769%" y2="50.0019286%"
                        id="linearGradient-sidekick-3">
            <stop stop-color="#BDC2C8" offset="0%"></stop>
            <stop stop-color="#E0E4E9" offset="100%"></stop>
        </linearGradient>
        <linearGradient x1="0.00508603882%" y1="49.9973196%" x2="100.003956%" y2="49.9973196%"
                        id="linearGradient-sidekick-4">
            <stop stop-color="#BDC2C8" offset="0%"></stop>
            <stop stop-color="#E0E4E9" offset="100%"></stop>
        </linearGradient>
        <linearGradient x1="59.6876917%" y1="44.2388656%" x2="42.5221997%" y2="53.2936265%"
                        id="linearGradient-sidekick-5">
            <stop stop-color="#BDC2C8" offset="0%"></stop>
            <stop stop-color="#E0E4E9" offset="100%"></stop>
        </linearGradient>
        <linearGradient x1="94.4495955%" y1="45.583871%" x2="6.27040677%" y2="53.2147845%"
                        id="linearGradient-sidekick-6">
            <stop stop-color="#BDC2C8" offset="0%"></stop>
            <stop stop-color="#E0E4E9" offset="100%"></stop>
        </linearGradient>
        <linearGradient x1="-0.00505780347%" y1="49.9908854%" x2="100.00273%" y2="49.9908854%"
                        id="linearGradient-sidekick-7">
            <stop stop-color="#20293E" offset="22.1%"></stop>
            <stop stop-color="#222C41" offset="26.04%"></stop>
            <stop stop-color="#2E3951" offset="46.75%"></stop>
            <stop stop-color="#35415B" offset="64.79%"></stop>
            <stop stop-color="#38445F" offset="78.05%"></stop>
        </linearGradient>
        <linearGradient x1="-0.00505780347%" y1="49.9557292%" x2="100.00273%" y2="49.9557292%"
                        id="linearGradient-sidekick-8">
            <stop stop-color="#20293E" offset="22.1%"></stop>
            <stop stop-color="#222C41" offset="26.04%"></stop>
            <stop stop-color="#2E3951" offset="46.75%"></stop>
            <stop stop-color="#35415B" offset="64.79%"></stop>
            <stop stop-color="#38445F" offset="78.05%"></stop>
        </linearGradient>
        <linearGradient x1="0%" y1="49.9990935%" x2="99.9985435%" y2="49.9990935%" id="linearGradient-sidekick-9">
            <stop stop-color="#20293E" offset="22.1%"></stop>
            <stop stop-color="#222C41" offset="26.04%"></stop>
            <stop stop-color="#2E3951" offset="46.75%"></stop>
            <stop stop-color="#35415B" offset="64.79%"></stop>
            <stop stop-color="#38445F" offset="78.05%"></stop>
        </linearGradient>
        <linearGradient x1="0.0295536791%" y1="49.9904068%" x2="100.022919%" y2="49.9904068%"
                        id="linearGradient-sidekick-10">
            <stop stop-color="#20293E" offset="22.1%"></stop>
            <stop stop-color="#222C41" offset="26.04%"></stop>
            <stop stop-color="#2E3951" offset="46.75%"></stop>
            <stop stop-color="#35415B" offset="64.79%"></stop>
            <stop stop-color="#38445F" offset="78.05%"></stop>
        </linearGradient>
        <linearGradient x1="-4.89476261e-05%" y1="50.0028656%" x2="99.99628%" y2="50.0028656%"
                        id="linearGradient-sidekick-11">
            <stop stop-color="#20293E" offset="22.1%"></stop>
            <stop stop-color="#222C41" offset="26.04%"></stop>
            <stop stop-color="#2E3951" offset="46.75%"></stop>
            <stop stop-color="#35415B" offset="64.79%"></stop>
            <stop stop-color="#38445F" offset="78.05%"></stop>
        </linearGradient>
        <linearGradient x1="0.00820707071%" y1="49.9992903%" x2="99.9829545%" y2="49.9992903%"
                        id="linearGradient-sidekick-12">
            <stop stop-color="#20293E" offset="22.1%"></stop>
            <stop stop-color="#222C41" offset="26.04%"></stop>
            <stop stop-color="#2E3951" offset="46.75%"></stop>
            <stop stop-color="#35415B" offset="64.79%"></stop>
            <stop stop-color="#38445F" offset="78.05%"></stop>
        </linearGradient>
        <linearGradient x1="0.00513347023%" y1="50.009375%" x2="99.9911448%" y2="50.009375%"
                        id="linearGradient-sidekick-13">
            <stop stop-color="#20293E" offset="22.1%"></stop>
            <stop stop-color="#222C41" offset="26.04%"></stop>
            <stop stop-color="#2E3951" offset="46.75%"></stop>
            <stop stop-color="#35415B" offset="64.79%"></stop>
            <stop stop-color="#38445F" offset="78.05%"></stop>
        </linearGradient>
        <linearGradient x1="28.3377891%" y1="53.4786293%" x2="66.7473173%" y2="46.4999393%"
                        id="linearGradient-sidekick-14">
            <stop stop-color="#BB574E" offset="0%"></stop>
            <stop stop-color="#E5A383" offset="100%"></stop>
        </linearGradient>
    </defs>
    <g id="sidekick-inline" stroke="none" stroke-width="1" fill="none" fill-rule="evenodd">
        <g id="background" fill-rule="nonzero" opacity="0.1">
            <path d="M346.85,462.95 C252.65,599.12 240.61,763.21 116.28,677.2 C-8.05,591.19 -32.47,411.08 61.73,274.91 C155.93,138.74 407.86,43.6 532.19,129.61 C656.52,215.62 441.05,326.78 346.85,462.95 Z"
                  id="blob-big" fill="#3b82f6"></path>
            <path d="M631.75,349.24 C618.53,314.26 605.74,286.68 640.73,273.47 C675.72,260.26 714.78,277.9 728,312.88 C741.22,347.86 723.57,386.93 688.59,400.15 C653.61,413.37 644.97,384.23 631.75,349.24 Z"
                  id="blob-medium" fill="#9333ea"></path>
            <path d="M56.2,57.9 C37.66,73.64 23.48,87.41 9.07,70.44 C-5.34,53.47 -1.97,26.96 16.57,11.22 C35.11,-4.52 61.82,-3.53 76.23,13.44 C90.64,30.4 74.75,42.16 56.2,57.9 Z"
                  id="blob-small" fill="#4ade80"></path>
        </g>
        <g id="sidekick">
            <path d="M464.4,380.31 L456.47,375.6 L469.79,354.86 C495.84,314.3 490.52,261.53 456.85,226.54 L430.62,199.28 L437.46,193.19 L463.69,220.45 C500.2,258.39 505.97,315.6 477.72,359.57 L464.4,380.31 Z"
                  id="Path" fill="#20293E" fill-rule="nonzero"></path>
            <g transform="translate(61.857643, 154.980000)" fill-rule="nonzero">
                <g id="sidekick-left-arm" fill-rule="nonzero">
                    <path d="M67.1923575,90.28 L7.68235749,90.28 C4.96235749,90.28 2.74235749,88.06 2.74235749,85.34 L2.74235749,4.94 C2.74235749,2.22 4.96235749,-1.42108547e-14 7.68235749,-1.42108547e-14 L67.1923575,-1.42108547e-14 C69.9123575,-1.42108547e-14 72.1323575,2.22 72.1323575,4.94 L72.1323575,85.34 C72.1323575,88.06 69.9123575,90.28 67.1923575,90.28 Z"
                          id="Path" fill="#20293E"></path>
                    <path d="M138.552357,233.91 C112.222357,233.91 85.2223575,228.58 61.7123575,213.4 C20.7323575,186.93 0.932357495,138.55 2.87235749,69.58 L71.9423575,71.52 C70.7323575,114.63 79.8723575,142.82 99.1223575,155.3 C124.474166,171.737671 169.507997,166.900543 199.590761,157.641246 C211.692059,153.916538 244.167814,177.456548 250.499012,174.41 L257.912357,204.8 C249.542357,208.86 195.622357,233.91 138.552357,233.91 Z"
                          id="Path" fill="url(#linearGradient-sidekick-1)"></path>
                    <path d="M151.802357,213.68 C125.472357,213.68 98.4723575,208.35 74.9623575,193.17 C38.2023575,169.43 18.5523575,128 16.2723575,69.96 L2.87235749,69.58 C0.932357495,138.54 20.7323575,186.93 61.7123575,213.4 C85.2223575,228.58 112.222357,233.91 138.552357,233.91 C195.622357,233.91 249.542357,208.86 257.912357,204.8 L252.102357,192.8 C229.732357,201.54 191.542357,213.68 151.802357,213.68 Z"
                          id="Path" fill="#20293E" opacity="0.1"></path>
                    <path d="M69.1923575,186.64 L85.7223575,174.41 C85.7223575,174.41 85.2823575,193.44 69.1923575,186.64 Z"
                          id="Path" fill="#20293E" opacity="0.09"></path>
                    <path d="M65.8823575,70.66 L53.5023575,59.69 C52.9423575,59.19 52.8823575,58.32 53.3823575,57.75 L87.0823575,19.74 C87.5823575,19.18 88.4523575,19.12 89.0223575,19.62 L101.402357,30.59 C101.962357,31.09 102.022357,31.96 101.522357,32.53 L67.8223575,70.54 C67.3223575,71.11 66.4423575,71.16 65.8823575,70.66 Z"
                          id="Path" fill="#20293E"></path>
                    <path d="M75.2623575,76.44 L0.572357495,71.38 C0.232357495,71.36 -0.0276425052,71.06 0.00235749477,70.72 L0.502357495,63.29 C0.522357495,62.95 0.822357495,62.69 1.16235749,62.72 L75.8523575,67.78 C76.1923575,67.8 76.4523575,68.1 76.4223575,68.44 L75.9223575,75.87 C75.9023575,76.2 75.6023575,76.46 75.2623575,76.44 Z"
                          id="Path" fill="#EAB308"></path>
                </g>
            </g>
            <g id="sidekick-right-arm" transform="translate(368.830000, 298.950000)" fill-rule="nonzero">
                <path d="M175.86,179.56 L233.19,163.6 C235.81,162.87 238.54,164.42 239.27,167.03 L260.83,244.49 C261.56,247.11 260.01,249.84 257.4,250.57 L200.07,266.53 C197.45,267.26 194.72,265.71 193.99,263.1 L172.43,185.64 C171.69,183.02 173.24,180.28 175.86,179.56 Z"
                      id="Path" fill="#20293E"></path>
                <path d="M182.38,198.11 L197.24,205.36 C197.92,205.69 198.2,206.52 197.87,207.2 L175.6,252.85 C175.27,253.53 174.44,253.81 173.76,253.48 L158.9,246.23 C158.22,245.9 157.94,245.07 158.27,244.39 L180.54,198.74 C180.88,198.06 181.71,197.78 182.38,198.11 Z"
                      id="Path" fill="#20293E"></path>
                <path d="M173.19,191.23 C154.63,116.33 41.87,76.58 -2.84217094e-14,67.59 L14.36,0 C22.23,1.67 207.48,42.31 240.27,174.61 L173.19,191.23 Z"
                      id="Path" fill="url(#linearGradient-sidekick-2)"></path>
                <path d="M176.34,201.39 L211.88,195.04 C181.86,97.64 67.44,47.83 21.63,31.46 L11.71,66.57 C52.89,78.31 162.77,125.43 176.34,201.39 Z"
                      id="Path" fill="#20293E" opacity="0.1"></path>
                <path d="M154.92,94.14 L171.45,81.91 C171.45,81.91 171.02,100.94 154.92,94.14 Z" id="Path"
                      fill="#20293E" opacity="0.09"></path>
                <path d="M242.69,176.25 L169.68,192.81 C169.35,192.89 169.02,192.68 168.94,192.34 L167.29,185.08 C167.21,184.75 167.42,184.42 167.76,184.34 L240.77,167.78 C241.1,167.7 241.43,167.91 241.51,168.25 L243.16,175.51 C243.23,175.85 243.02,176.18 242.69,176.25 Z"
                      id="Path" fill="#EAB308"></path>
            </g>
            <g id="leg-left" transform="translate(175.779201, 455.090000)">
                <path d="M63.8207993,294.59 C11.8607993,224.78 -7.61920068,184.76 2.64079932,121.29 C15.1207993,44.12 69.2307993,4.29 75.3607993,-2.84217094e-14 L124.870799,70.78 L125.290799,70.48 C124.020799,71.42 94.0107993,93.98 87.7107993,136.37 C81.8707993,175.62 92.9207993,219.2 129.990799,269 L89.8407993,331.84 L63.8207993,294.59 Z"
                      id="Path" fill="url(#linearGradient-sidekick-3)" fill-rule="nonzero"></path>
                <path d="M139.890799,279.6 C98.6407993,233.21 83.8407993,190.75 86.2407993,151.15 C88.8407993,108.37 110.160799,81.07 111.350799,80.02 L117.560799,82.57 L95.4507993,56.18 C81.7807993,77.53 68.3807993,107.51 65.6007993,145.48 C61.2307993,204.97 80.6707993,242.16 129.680799,299.15 L139.890799,279.6 Z"
                      id="Path" fill="#20293E" fill-rule="nonzero" opacity="0.09"></path>
                <path d="M7.41079932,177.66 L43.0807993,177.66 C43.0807993,177.66 22.8407993,194.06 7.41079932,177.66 Z"
                      id="Path" fill="#20293E" fill-rule="nonzero" opacity="0.09"></path>
                <path d="M87.0507993,120.8 C70.5617993,116.526858 57.9188702,109.991858 49.122012,101.195 C42.7033146,94.7763026 32.5229104,78.4879693 18.5807993,52.33 C18.0707993,51.82 18.0707993,50.98 18.5807993,50.46 L29.8207993,39.22 C30.3307993,38.71 31.1707993,38.71 31.6907993,39.22 L100.160799,107.69 C100.670799,108.2 100.670799,109.04 100.160799,109.56 L94.723195,123.064091 C94.203195,123.584091 87.5607993,121.32 87.0507993,120.8 Z"
                      id="Path" fill="#EAB308" fill-rule="nonzero"></path>
                <path d="M149.500799,292.37 L140.410799,276.63 C137.490799,271.57 132.980799,267.97 127.870799,266.08 C128.650799,273.81 118.030799,285.18 102.240799,292.88 C84.7307993,301.42 67.5307993,302.18 63.8307993,294.59 C63.6107993,294.15 63.4607993,293.68 63.3407993,293.2 L39.0407993,307.23 C27.5207993,313.88 23.5407993,328.75 30.1907993,340.27 L39.2807993,356.01 C45.9307993,367.53 60.8007993,371.51 72.3207993,364.86 L140.660799,325.41 C152.160799,318.76 156.150799,303.89 149.500799,292.37 Z"
                      id="Path" fill="#20293E" fill-rule="nonzero"></path>
                <path d="M36.4607993,308.89 L53.9607993,329.14 C55.5507993,330.98 58.3807993,331.2 60.2307993,329.62 L60.2307993,329.62 C62.0907993,328.04 62.3107993,325.25 60.7207993,323.41 L44.1407993,304.22 L39.1807993,307.06 C38.2107993,307.61 37.3207993,308.23 36.4607993,308.89 Z"
                      id="Path" fill="#EAB308" fill-rule="nonzero"></path>
                <path d="M62.6707993,315.91 C64.2507993,317.75 67.0407993,317.97 68.8807993,316.39 C70.7207993,314.81 70.9407993,312.02 69.3607993,310.18 L57.5407993,296.37 L49.7707993,301.01 L62.6707993,315.91 Z"
                      id="Path" fill="#EAB308" fill-rule="nonzero"></path>
                <path d="M72.3307993,364.88 L140.670799,325.43 C148.980799,320.63 153.340799,311.57 152.640799,302.56 L46.5407993,363.82 C54.0007993,368.91 64.0307993,369.67 72.3307993,364.88 Z"
                      id="Path" fill="url(#linearGradient-sidekick-4)" fill-rule="nonzero"></path>
                <path d="M63.3307993,293.2 C63.3307993,293.2 64.7307993,298.65 73.1107993,299.65 C84.4607993,301 105.820799,297.18 122.150799,277.13 C124.700799,274 126.610799,270.5 127.860799,266.08"
                      id="Path" stroke="#EAB308" stroke-linecap="round"></path>
            </g>
            <g id="leg-right" transform="translate(331.140000, 473.200000)">
                <path d="M110.84,284.24 C145.56,204.44 155.43,161.04 131,101.57 C101.3,29.26 39.55,2.78 32.6,2.84217094e-14 L0.48,80.19 L0,79.99 C1.45,80.61 35.8,95.76 51.58,135.61 C66.19,172.5 65.34,217.45 40.58,274.38 L93.97,326.44 L110.84,284.24 Z"
                      id="Path" fill="url(#linearGradient-sidekick-5)" fill-rule="nonzero"></path>
                <path d="M139.18,157.55 L104.44,165.66 C104.44,165.66 127.88,177.02 139.18,157.55 Z" id="Path"
                      fill="#20293E" fill-rule="nonzero" opacity="0.09"></path>
                <path d="M26.9,301.57 L32.17,284.17 C33.86,278.58 37.44,274.04 41.99,271.04 C42.99,278.74 55.92,287.41 73.05,291.31 C92.04,295.64 108.96,292.48 110.84,284.24 C110.95,283.76 111,283.27 111,282.77 L137.85,290.91 C150.58,294.77 157.84,308.34 153.98,321.07 L148.71,338.47 C144.85,351.2 131.28,358.46 118.55,354.6 L43.03,331.72 C30.31,327.87 23.05,314.3 26.9,301.57 Z"
                      id="Path" fill="#20293E" fill-rule="nonzero"></path>
                <path d="M140.73,291.94 L128.29,315.64 C127.16,317.8 124.46,318.65 122.29,317.54 L122.29,317.54 C120.12,316.43 119.27,313.75 120.4,311.6 L132.19,289.14 L137.67,290.78 C138.73,291.09 139.74,291.5 140.73,291.94 Z"
                      id="Path" fill="#EAB308" fill-rule="nonzero"></path>
                <path d="M116.81,304.74 C115.69,306.89 113.02,307.74 110.87,306.62 C108.72,305.5 107.87,302.83 108.99,300.68 L117.36,284.55 L125.98,287.31 L116.81,304.74 Z"
                      id="Path" fill="#EAB308" fill-rule="nonzero"></path>
                <path d="M118.53,354.62 L43.01,331.74 C33.83,328.96 27.52,321.12 26.15,312.2 L143.4,347.72 C137.31,354.38 127.71,357.4 118.53,354.62 Z"
                      id="Path" fill="url(#linearGradient-sidekick-6)" fill-rule="nonzero"></path>
                <path d="M111,282.78 C111,282.78 110.87,288.4 102.94,291.28 C92.2,295.18 70.53,296.31 50.07,280.5 C46.88,278.03 44.22,275.06 42,271.04"
                      id="Path" stroke="#EAB308" stroke-linecap="round"></path>
                <path d="M35.93,282.76 C63.66,227.22 66.88,182.37 54.24,144.76 C40.58,104.14 12.87,83.34 11.46,82.64 L6.13,86.72 L20.6,55.48 C39.36,72.53 60.11,97.98 72.7,133.91 C92.42,190.2 83.35,231.18 50.9,298.97 L35.93,282.76 Z"
                      id="Path" fill="#20293E" fill-rule="nonzero" opacity="0.09"></path>
                <path d="M22.85,94.45 L111.19,54.82 C111.85,54.52 112.64,54.82 112.93,55.48 L119.44,69.98 C119.74,70.64 119.44,71.43 118.78,71.72 C99.6393559,88.5685517 85.5460225,99.0218851 76.5,103.08 C65.9149114,107.828552 50.5615781,110.585218 30.44,111.35 C29.78,111.65 28.99,111.35 28.7,110.69 L22.19,96.19 C21.89,95.53 22.19,94.74 22.85,94.45 Z"
                      id="Path" fill="#EAB308" fill-rule="nonzero"></path>
            </g>
            <path d="M469.69,437.91 C469.69,521.89 432.39,579.38 335.67,579.38 C238.95,579.38 201.65,532.12 201.65,448.14 C201.65,364.16 237.25,296.08 333.97,296.08 C430.69,296.08 469.69,353.93 469.69,437.91 Z"
                  id="Path" fill="#DFE3E7" fill-rule="nonzero"></path>
            <line x1="331.97" y1="321.7" x2="324.78" y2="579.16" id="Path" stroke="#20293E"></line>
            <path d="M335.1,343.09 L328.29,343.09 C327.98,343.09 327.73,342.84 327.73,342.53 L327.73,322.27 C327.73,321.96 327.98,321.71 328.29,321.71 L335.1,321.71 C335.41,321.71 335.66,321.96 335.66,322.27 L335.66,342.53 C335.66,342.84 335.41,343.09 335.1,343.09 Z"
                  id="Path" fill="#20293E" fill-rule="nonzero"></path>
            <path d="M394.93,322.89 L272.53,322.89 C271.92,322.89 271.42,322.39 271.42,321.78 L271.42,308.43 C271.42,307.82 271.92,307.32 272.53,307.32 L394.93,307.32 C395.54,307.32 396.04,307.82 396.04,308.43 L396.04,321.78 C396.03,322.39 395.54,322.89 394.93,322.89 Z"
                  id="Path" fill="#B3BECA" fill-rule="nonzero"></path>
            <path d="M394.93,307.32 L272.53,307.32 C271.92,307.32 271.42,306.82 271.42,306.21 L271.42,292.86 C271.42,292.25 271.92,291.75 272.53,291.75 L394.93,291.75 C395.54,291.75 396.04,292.25 396.04,292.86 L396.04,306.21 C396.03,306.82 395.54,307.32 394.93,307.32 Z"
                  id="Path" fill="#B3BECA" fill-rule="nonzero"></path>
            <path d="M392.05,291.86 C392.06,291.98 392.09,292.1 392.09,292.22 L392.09,298.47 C392.09,301.03 389.61,303.13 386.58,303.13 L272.99,303.13 C272.45,303.13 271.94,303.04 271.45,302.92 C271.67,305.31 274.03,307.22 276.92,307.22 L390.5,307.22 C393.53,307.22 396.01,305.12 396.01,302.56 L396.01,296.31 C396.01,294.2 394.33,292.43 392.05,291.86 Z"
                  id="Path" fill="url(#linearGradient-sidekick-7)" fill-rule="nonzero" opacity="0.19"></path>
            <path d="M392.05,307.43 C392.06,307.55 392.09,307.67 392.09,307.79 L392.09,314.04 C392.09,316.6 389.61,318.7 386.58,318.7 L272.99,318.7 C272.45,318.7 271.94,318.61 271.45,318.49 C271.67,320.88 274.03,322.79 276.92,322.79 L390.5,322.79 C393.53,322.79 396.01,320.69 396.01,318.13 L396.01,311.88 C396.01,309.77 394.33,308 392.05,307.43 Z"
                  id="Path" fill="url(#linearGradient-sidekick-8)" fill-rule="nonzero" opacity="0.19"></path>
            <ellipse id="Oval" fill="url(#linearGradient-sidekick-9)" fill-rule="nonzero" opacity="0.09" cx="330.86"
                     cy="267.73" rx="72.09" ry="55.16"></ellipse>
            <ellipse id="Oval" fill="#E5A383" fill-rule="nonzero" cx="329.2" cy="203.63" rx="102.15"
                     ry="101.2"></ellipse>
            <path d="M449.46,237.28 L435.24,237.28 C434.59,237.28 434.06,236.75 434.06,236.1 L434.06,182.1 C434.06,181.45 434.59,180.92 435.24,180.92 L449.46,180.92 C450.11,180.92 450.64,181.45 450.64,182.1 L450.64,236.1 C450.64,236.75 450.11,237.28 449.46,237.28 Z"
                  id="Path" fill="#B3BECA" fill-rule="nonzero"></path>
            <path d="M223.28,237.28 L209.06,237.28 C208.41,237.28 207.88,236.75 207.88,236.1 L207.88,182.1 C207.88,181.45 208.41,180.92 209.06,180.92 L223.28,180.92 C223.93,180.92 224.46,181.45 224.46,182.1 L224.46,236.1 C224.46,236.75 223.93,237.28 223.28,237.28 Z"
                  id="Path" fill="#B3BECA" fill-rule="nonzero"></path>
            <path d="M446.23,180.96 L446.23,227.19 C446.23,229.81 444.08,231.96 441.46,231.96 L434.42,231.96 C434.29,231.96 434.19,231.9 434.06,231.89 L434.06,232.48 C434.06,235.1 436.21,237.25 438.83,237.25 L445.87,237.25 C448.49,237.25 450.64,235.1 450.64,232.48 L450.64,185.66 C450.64,183.16 448.68,181.15 446.23,180.96 Z"
                  id="Path" fill="url(#linearGradient-sidekick-10)" fill-rule="nonzero" opacity="0.19"></path>
            <path d="M328.47,114.94 C272.06,114.94 226.32,160.25 226.32,216.14 C226.32,272.03 272.05,317.34 328.47,317.34 C384.88,317.34 430.62,272.03 430.62,216.14 C430.61,160.25 384.88,114.94 328.47,114.94 Z M352.71,299.27 L302.75,299.27 C269.67,299.27 242.6,273.24 242.6,241.43 L242.6,216.27 C242.6,184.46 269.67,158.43 302.75,158.43 L352.71,158.43 C385.79,158.43 412.86,184.46 412.86,216.27 L412.86,241.43 C412.86,273.25 385.79,299.27 352.71,299.27 Z"
                  id="Shape" fill="url(#linearGradient-sidekick-11)" fill-rule="nonzero" opacity="0.11"></path>
            <circle id="Oval" fill="#C06459" fill-rule="nonzero" cx="398.65" cy="245.26" r="23.48"></circle>
            <circle id="Oval" fill="#C06459" fill-rule="nonzero" cx="258.77" cy="245.26" r="23.48"></circle>
            <path d="M219.32,180.92 L215.1,180.92 C215.53,181.64 215.84,182.42 215.84,183.31 L215.84,230.13 C215.84,232.75 213.69,234.9 211.07,234.9 L208.25,234.9 C209.09,236.29 210.54,237.28 212.28,237.28 L219.32,237.28 C221.94,237.28 224.09,235.13 224.09,232.51 L224.09,185.69 C224.09,183.07 221.94,180.92 219.32,180.92 Z"
                  id="Path" fill="url(#linearGradient-sidekick-12)" fill-rule="nonzero" opacity="0.19"></path>
            <path d="M329.2,94.73 C268.49,94.73 219.28,144.14 219.28,205.1 C219.28,266.06 268.49,315.47 329.2,315.47 C389.91,315.47 439.12,266.06 439.12,205.1 C439.12,144.14 389.91,94.73 329.2,94.73 Z M353.45,286.76 L303.49,286.76 C270.41,286.76 243.34,260.73 243.34,228.92 L243.34,203.76 C243.34,171.95 270.41,145.92 303.49,145.92 L353.45,145.92 C386.53,145.92 413.6,171.95 413.6,203.76 L413.6,228.92 C413.6,260.73 386.53,286.76 353.45,286.76 Z"
                  id="Shape" fill="#DFE3E8" fill-rule="nonzero"></path>
            <path d="M303.53,97.54 C298.18,102.23 294.77,109.09 294.77,116.72 L294.77,120.37 C294.77,134.42 306.27,145.92 320.32,145.92 L347.14,145.92 C361.19,145.92 372.69,134.42 372.69,120.37 L372.69,116.72 C372.69,111.37 371.02,106.41 368.18,102.29 C355.78,97.42 342.29,94.72 328.17,94.72 C319.7,94.73 311.46,95.72 303.53,97.54 Z"
                  id="Path" fill="url(#linearGradient-sidekick-13)" fill-rule="nonzero" opacity="0.11"></path>
            <path d="M363.58,145.92 L293.46,145.92 C291.32,145.92 289.56,144.17 289.56,142.02 L289.56,95.07 C289.56,92.93 291.31,91.17 293.46,91.17 L363.58,91.17 C365.72,91.17 367.48,92.92 367.48,95.07 L367.48,142.02 C367.47,144.17 365.72,145.92 363.58,145.92 Z"
                  id="Path" fill="#B5C5D0" fill-rule="nonzero"></path>
            <path d="M371.48,206.07 C371.65,207.37 371.35,208.48 370.23,208.62 C368.91,208.79 368.56,207.76 368.39,206.46 C368.22,205.16 368.45,204.06 369.63,203.91 C370.82,203.76 371.31,204.77 371.48,206.07 Z"
                  id="eye-right" fill="#271F44" fill-rule="nonzero"></path>
            <path d="M284.28,206.07 C284.45,207.37 284.15,208.48 283.03,208.62 C281.71,208.79 281.36,207.76 281.19,206.46 C281.02,205.16 281.25,204.06 282.43,203.91 C283.62,203.76 284.11,204.77 284.28,206.07 Z"
                  id="eye-left" fill="#271F44" fill-rule="nonzero"></path>
            <path d="M302.04,252.93 C302.28,245.21 318.31,249.47 333.96,247.91 C349.61,246.35 359.37,241.72 364.37,246.76 C369.38,251.8 356.07,269.54 333.72,270.28 C311.37,271.01 301.81,260.52 302.04,252.93 Z"
                  id="Path" fill="#FFFFFF" fill-rule="nonzero"></path>
            <path d="M271.41,184.56 C270.68,184.56 269.96,184.26 269.45,183.66 C268.51,182.58 268.63,180.94 269.72,180.01 C272.8,177.35 276.55,175.62 280.58,175 C284.57,174.37 288.63,174.89 292.32,176.45 C293.64,177.01 294.25,178.53 293.69,179.85 C293.13,181.16 291.62,181.79 290.29,181.22 C287.48,180.03 284.38,179.65 281.35,180.12 C278.28,180.59 275.43,181.91 273.09,183.93 C272.62,184.36 272.01,184.56 271.41,184.56 Z"
                  id="eyebrow-left" fill="#271F44" fill-rule="nonzero"></path>
            <path d="M377.39,182.33 C376.89,182.33 376.38,182.18 375.94,181.88 C373.41,180.17 370.45,179.19 367.39,179.06 C364.31,178.93 361.23,179.67 358.55,181.2 C357.3,181.91 355.72,181.47 355.02,180.22 C354.31,178.98 354.75,177.4 355.99,176.69 C359.52,174.69 363.56,173.72 367.61,173.89 C371.64,174.06 375.52,175.34 378.85,177.59 C380.04,178.39 380.35,180 379.54,181.19 C379.04,181.93 378.22,182.33 377.39,182.33 Z"
                  id="eyebrow-right" fill="#271F44" fill-rule="nonzero"></path>
            <path d="M316.83,223 C316.48,224.5 316.12,226.07 316.47,227.57 C316.89,229.42 318.43,230.96 320.27,231.4 C322.11,231.83 324.18,231.13 325.38,229.67 C325.67,231.91 327.97,233.68 330.21,233.39 C332.45,233.1 334.23,230.81 333.94,228.56 C335.46,230.36 337.59,232.36 339.83,231.63 C341.26,231.17 342.15,229.66 342.33,228.16 C342.5,226.66 342.1,225.17 341.67,223.72 C338.76,213.82 334.74,204.24 329.71,195.23 C329.09,194.13 328.43,193 327.41,192.26 C322.72,188.9 321.82,201.76 321.18,204.47 C319.72,210.66 318.27,216.83 316.83,223 Z"
                  id="nose" fill="url(#linearGradient-sidekick-14)" fill-rule="nonzero"></path>
            <path d="M361.45,257.73 C355.7,254.98 347.57,253.26 338.54,253.26 C323.95,253.26 311.7,257.74 308.08,263.81 C313.15,267.76 321.48,270.68 333.61,270.28 C346.5,269.85 356.35,263.77 361.45,257.73 Z"
                  id="Path" fill="#C06459" fill-rule="nonzero"></path>
            <path d="M318.42,133.75 L303.3,133.75 C302.61,133.75 302.04,133.19 302.04,132.49 L302.04,103.67 C302.04,102.98 302.6,102.41 303.3,102.41 L318.42,102.41 C319.11,102.41 319.68,102.97 319.68,103.67 L319.68,132.49 C319.67,133.19 319.11,133.75 318.42,133.75 Z"
                  id="Path" fill="#DFE3E8" fill-rule="nonzero" opacity="0.35"></path>
            <path d="M400.03,307.92 C421.19,332.82 430.67,367.82 430.67,409.18 C430.67,493.16 393.37,550.65 296.65,550.65 C268.69,550.65 245.73,546.68 227.17,539.04 C248.19,565.21 283.15,579.16 335.66,579.16 C432.38,579.16 469.680008,521.67 469.680008,437.69 C469.69,376.4 448.87,329.05 400.03,307.92 Z"
                  id="Path" fill="#20293E" fill-rule="nonzero" opacity="0.09"></path>

            <path d="M391.72 412.44C407.582 412.44 420.44 399.582 420.44 383.72C420.44 367.858 407.582 355 391.72 355C375.858 355 363 367.858 363 383.72C363 399.582 375.858 412.44 391.72 412.44Z"
                  fill="#EAB308"/>
            <path d="M367.693 382.062L368.38 386.012C368.391 386.058 368.413 386.101 368.447 386.142L371.554 389.277C371.593 389.32 371.648 389.345 371.702 389.354C371.723 389.359 371.747 389.355 371.771 389.35C371.847 389.338 371.916 389.286 371.947 389.214L373.549 385.508C374.4 385.645 375.171 385.552 375.836 385.222L377.252 386.636C377.347 386.725 377.49 386.735 377.59 386.654L378.871 385.639C378.921 385.599 378.947 385.541 378.952 385.478C378.958 385.416 378.935 385.351 378.891 385.307L377.502 383.766C377.671 383.441 377.998 382.616 377.897 381.283L381.998 380.393C382.081 380.377 382.14 380.323 382.17 380.251C382.2 380.178 382.183 380.093 382.137 380.033L379.418 376.576C379.389 376.536 379.341 376.507 379.295 376.49L375.343 375.303C374.682 374.37 373.888 373.413 372.998 372.452C367.874 366.937 363.533 365.67 361.402 365.403C360.7 365.316 360.305 365.347 360.293 365.349C360.196 365.356 360.117 365.421 360.087 365.515C360.015 365.748 358.465 371.341 365.402 379.74C365.417 379.749 366.344 380.842 367.693 382.062ZM368.994 376.421C367.776 376.28 366.914 375.177 367.054 373.964C367.2 372.751 368.295 371.878 369.512 372.024C370.724 372.169 371.598 373.264 371.452 374.481C371.311 375.695 370.212 376.563 368.994 376.421Z"
                  fill="#15233B"/>
            <path d="M393.596 402.878C387.363 402.878 383.037 400.84 379.138 396.076C379.053 395.994 379.025 395.883 379.025 395.746C379.025 394.947 380.476 393.515 382.098 392.193C383.578 390.981 385.286 389.825 386.139 389.825C386.339 389.825 386.481 389.88 386.566 389.99C388.217 391.835 390.352 393.185 393.027 393.185C395.844 393.185 397.523 392.111 397.523 390.21C397.523 388.31 396.243 387.181 392.799 387.181C391 387.181 388.5 386.336 388.5 383.105C388.5 379.988 391 379.085 392.685 379.085C395.617 379.085 398.028 377.18 398 375.5C397.988 374.776 397.7 373.862 397.5 373.5C397.047 372.681 395.378 371.5 394 371.5C392 371.5 390.5 372 388.5 373.5C384.5 376 381 374 384 369C385.627 366.288 390.261 364.292 394 364.5C403 365 406 371.79 406 375.5C406 378.226 404.874 381.838 402 383.105C404.874 384.179 407.911 388.035 407.911 390.954C407.854 398.83 401.337 402.878 393.596 402.878Z"
                  fill="#15233B"/>
        </g>

    </g>
</svg>