<?xml version="1.0" encoding="UTF-8"?>
<svg viewBox="0 0 385 960" version="1.1" xmlns="http://www.w3.org/2000/svg" xmlns:xlink="http://www.w3.org/1999/xlink">
    <title>smoke.inline</title>
    <defs>
        <linearGradient x1="50%" y1="0%" x2="50%" y2="16.9027089%" id="smoke-gradient-1">
            <stop stop-color="#EEEEEE" stop-opacity="0" offset="0%"></stop>
            <stop stop-color="#D8D8D8" offset="100%"></stop>
        </linearGradient>
        <linearGradient x1="50%" y1="0%" x2="50%" y2="16.9027089%" id="smoke-gradient-2">
            <stop stop-color="#EEEEEE" stop-opacity="0" offset="0%"></stop>
            <stop stop-color="#A9A9A9" offset="100%"></stop>
        </linearGradient>
    </defs>
    <g id="smoke.inline-container" stroke="none" stroke-width="1" fill="none" fill-rule="evenodd">
        <g id="smoke.inline">
            <path d="M223.933107,350.638655 C223.933107,350.638655 199.410193,666.198764 246.520453,817.042438 L246.525215,817.033483 C250.901063,822.42082 254.136855,829.418391 255.698422,837.316814 C257.913874,835.050215 260.354188,833.294268 262.954182,832.153015 C261.885342,829.410898 269.5,814.424653 294.5,803.362387 C306.917086,797.867943 316.611296,796.805396 324,796.684362 C331.487379,796.561712 336.670028,797.474267 349.509262,806.168725 C375.018524,823.443058 370.541499,847.700433 368.595714,853 C381.020111,856.534919 385,867.856872 385,888.692001 C385,906.127333 378.033102,914.141073 368.595714,920.636194 C358.15125,942.646282 283.393328,959.714285 192.723406,959.714285 C96.482783,959.714285 18.1694674,940.48456 15.6601132,916.524992 C8.7886522,908.875371 16.806331,895.036037 16.806331,880.617692 C16.806331,879.103539 16.8559722,877.607942 16.9527922,876.134842 C6.76709905,868.54364 0.518943965,858.287403 0.518943965,847 C0.518943965,839.021856 3.64047387,831.558874 9.06761919,825.18758 C6.32101496,821.395772 25.4269208,802.652287 54.5,803.362387 C81.5725244,804.023625 106.376267,825.010444 100.624077,827.872425 C101.435275,828.921288 102.183742,829.998327 102.867779,831.099876 C104.432315,830.785059 106.035375,830.622352 107.667051,830.622352 C114.685975,830.622352 121.175379,833.633133 126.442914,838.735251 C131.710115,833.633173 138.199558,830.622352 145.218527,830.622352 C145.269018,830.622352 145.319482,830.622508 145.369918,830.622819 C149.665649,821.544756 156.195589,815.322588 163.649997,814.053251 C183.085552,755.381697 192.776689,600.910165 192.723406,350.638655 L223.933107,350.638655 Z" id="smoke-1" fill="url(#smoke-gradient-1)" fill-rule="nonzero"></path>
            <g id="smoke-bubbles-l" transform="translate(3.000000, 810.000000)" fill="#D8D8D8">
                <circle id="smoke-l-c10" cx="18.5" cy="24.5" r="18.5"></circle>
                <circle id="smoke-l-c9" cx="26.5" cy="18.5" r="18.5"></circle>
                <circle id="smoke-l-c8" cx="51.5" cy="18.5" r="18.5"></circle>
                <circle id="smoke-l-c7" cx="74.5" cy="24.5" r="18.5"></circle>
                <circle id="smoke-l-c6" cx="45.5" cy="32.5" r="18.5"></circle>

                <circle id="smoke-l-c5" cx="18.5" cy="24.5" r="18.5"></circle>
                <circle id="smoke-l-c4" cx="26.5" cy="18.5" r="18.5"></circle>
                <circle id="smoke-l-c3" cx="51.5" cy="18.5" r="18.5"></circle>
                <circle id="smoke-l-c2" cx="74.5" cy="24.5" r="18.5"></circle>
                <circle id="smoke-l-c1" cx="45.5" cy="32.5" r="18.5"></circle>

            </g>

            <g id="smoke-bubbles-r" transform="translate(290.000000, 810.000000)" fill="#D8D8D8">
                <circle id="smoke-r-c10" cx="0" cy="24.5" r="18.5"></circle>
                <circle id="smoke-r-c9" cx="6.5" cy="18.5" r="18.5"></circle>
                <circle id="smoke-r-c8" cx="-31.5" cy="18.5" r="18.5"></circle>
                <circle id="smoke-r-c7" cx="-24.5" cy="24.5" r="18.5"></circle>
                <circle id="smoke-r-c6" cx="25.5" cy="32.5" r="18.5"></circle>

                <circle id="smoke-r-c5" cx="1" cy="24.5" r="18.5"></circle>
                <circle id="smoke-r-c4" cx="2.5" cy="18.5" r="18.5"></circle>
                <circle id="smoke-r-c3" cx="-21.5" cy="18.5" r="18.5"></circle>
                <circle id="smoke-r-c2" cx="-14.5" cy="24.5" r="18.5"></circle>
                <circle id="smoke-r-c1" cx="15.5" cy="32.5" r="18.5"></circle>

            </g>

            <path d="M237.825986,0.638655 C237.825986,0.638655 216.14896,492.720483 217.717871,611.059424 C218.88181,698.852319 223.534306,780.008765 232.466026,812.748798 C242.986432,814.910789 251.784549,823.603088 256.201705,835.4457 C259.091027,835.408413 262.001474,835.2906 264.772645,835.549595 C265.698081,835.25376 266.641008,835.030357 267.598801,834.88298 C267.200512,832.424031 266.991597,829.880461 266.991597,827.27731 C266.991597,805.742847 281.288386,788.285714 298.92437,788.285714 C310.283621,788.285714 320.257578,795.527954 325.918282,806.437239 C342.953167,806.502473 356.848662,822.856394 357.705966,843.41289 L357.747899,843.411764 C372.599254,843.411764 384.638655,861.62136 384.638655,884.084033 C384.638655,898.310828 379.809222,910.831563 372.494684,918.100437 C370.51195,941.164092 291.869794,959.714285 195.147474,959.714285 C98.76363,959.714285 20.3336301,941.293696 17.8193275,918.342173 C10.9378538,911.01465 6.4295256,898.814174 6.4295256,885.001791 C6.4295256,876.149605 8.2812627,867.959489 11.4241178,861.289647 C11.4171531,861.03643 11.4136731,860.781993 11.4136731,860.527009 C11.4136731,853.205723 0.518943965,844.802723 0.518943965,829.322552 C0.518943965,807.624131 17.4314621,790.178398 35.0735658,790.178398 C40.8454879,790.178398 46.2598634,792.061211 50.9328295,795.354715 C55.6047175,792.06116 61.0190243,790.178398 66.7908683,790.178398 C84.4329719,790.178398 96.1239548,807.624131 96.1239548,829.322552 C96.1239548,835.680887 94.8958948,841.686446 92.7155838,847 C104.874722,850.269631 124.928019,840.738104 125.968006,841.504357 C126.280706,837.840338 128.674652,834.881907 133.149845,832.629062 C139.371009,829.497282 150.099304,826.437836 159.677345,822.45601 C160.905345,821.760599 162.176317,821.200901 163.482406,820.788299 C168.416191,818.501474 172.794912,815.90749 175.735864,812.851977 C176.719429,811.057877 177.816057,809.370703 179.011119,807.805485 C186.086022,791.566156 196.017741,732.298446 196.129057,616.061271 C196.156521,587.38325 190.450542,382.242378 179.011119,0.638655 L237.825986,0.638655 Z" id="smoke-2"  class="smoke-2" fill-opacity="0.819656906" fill="url(#smoke-gradient-2)" fill-rule="nonzero"></path>
        </g>
    </g>
</svg>