<?xml version="1.0" encoding="UTF-8"?>
<svg viewBox="0 0 1842 892" version="1.1" xmlns="http://www.w3.org/2000/svg" xmlns:xlink="http://www.w3.org/1999/xlink">
    <title>Slice 1</title>
    <g id="Page-1" stroke="none" stroke-width="1" fill="none" fill-rule="evenodd" opacity="0.203194754">
        <g id="space-background" fill="#EAB32A" fill-rule="nonzero">
            <circle id="Oval" cx="786" cy="677.1" r="2.3"></circle>
            <circle id="Oval" cx="866.3" cy="625.2" r="1.9"></circle>
            <circle id="Oval" cx="884.5" cy="723.9" r="2.3"></circle>
            <circle id="Oval" cx="887.1" cy="653.2" r="1.9"></circle>
            <circle id="Oval" cx="944.4" cy="417.9" r="2.3"></circle>
            <circle id="Oval" cx="1009.8" cy="699.6" r="2.3"></circle>
            <circle id="Oval" cx="942.2" cy="296.5" r="2.3"></circle>
            <circle id="Oval" cx="1042.9" cy="239.1" r="2.3"></circle>
            <circle id="Oval" cx="1040.7" cy="343.3" r="2.3"></circle>
            <circle id="Oval" cx="407.8" cy="289" r="2.3"></circle>
            <circle id="Oval" cx="508.5" cy="231.6" r="2.3"></circle>
            <circle id="Oval" cx="506.2" cy="335.8" r="2.3"></circle>
            <circle id="Oval" cx="1137.3" cy="318.9" r="2.3"></circle>
            <circle id="Oval" cx="1060.2" cy="504.5" r="2.3"></circle>
            <circle id="Oval" cx="977.5" cy="310.7" r="2.3"></circle>
            <circle id="Oval" cx="365.6" cy="549.7" r="2.3"></circle>
            <circle id="Oval" cx="466.3" cy="492.4" r="2.3"></circle>
            <circle id="Oval" cx="464.1" cy="596.5" r="2.3"></circle>
            <circle id="Oval" cx="395.7" cy="644.1" r="2.3"></circle>
            <circle id="Oval" cx="496.5" cy="586.7" r="2.3"></circle>
            <circle id="Oval" cx="712.9" cy="528" r="2.3"></circle>
            <circle id="Oval" cx="813.6" cy="470.6" r="2.3"></circle>
            <circle id="Oval" cx="801.2" cy="589" r="1.9"></circle>
            <circle id="Oval" cx="1131.4" cy="813.3" r="2.3"></circle>
            <circle id="Oval" cx="1232.1" cy="755.9" r="2.3"></circle>
            <circle id="Oval" cx="1229.9" cy="860.1" r="2.3"></circle>
            <circle id="Oval" cx="672.6" cy="808.8" r="2.3"></circle>
            <circle id="Oval" cx="773.3" cy="751.4" r="2.3"></circle>
            <circle id="Oval" cx="771.1" cy="855.6" r="2.3"></circle>
            <circle id="Oval" cx="927.1" cy="842" r="2.3"></circle>
            <circle id="Oval" cx="1027.8" cy="784.7" r="2.3"></circle>
            <circle id="Oval" cx="1025.6" cy="888.8" r="2.3"></circle>
            <circle id="Oval" cx="969.6" cy="523.9" r="2.3"></circle>
            <circle id="Oval" cx="1070.4" cy="466.6" r="2.3"></circle>
            <circle id="Oval" cx="1068.1" cy="570.7" r="2.3"></circle>
            <circle id="Oval" cx="1094.9" cy="499.6" r="2.3"></circle>
            <circle id="Oval" cx="1193.4" cy="546.4" r="2.3"></circle>
            <circle id="Oval" cx="995" cy="421.6" r="2.3"></circle>
            <circle id="Oval" cx="776" cy="322" r="2.3"></circle>
            <circle id="Oval-Copy" cx="639.3" cy="319.3" r="2.3"></circle>
            <circle id="Oval-Copy-2" cx="707.3" cy="458.3" r="2.3"></circle>
            <circle id="Oval" cx="876.7" cy="264.6" r="2.3"></circle>
            <circle id="Oval" cx="874.5" cy="368.8" r="2.3"></circle>
            <circle id="Oval" cx="901.3" cy="297.7" r="2.3"></circle>
            <circle id="Oval" cx="999.8" cy="344.5" r="2.3"></circle>
            <circle id="Oval" cx="801.3" cy="219.6" r="2.3"></circle>
            <circle id="Oval" cx="1215.3" cy="689" r="2.3"></circle>
            <circle id="Oval" cx="1316.1" cy="631.6" r="2.3"></circle>
            <circle id="Oval" cx="1313.8" cy="735.8" r="2.3"></circle>
            <circle id="Oval" cx="1340.6" cy="664.7" r="2.3"></circle>
            <circle id="Oval" cx="1439.1" cy="711.5" r="2.3"></circle>
            <circle id="Oval" cx="1240.7" cy="586.6" r="2.3"></circle>
            <circle id="Oval" cx="1174.5" cy="409.8" r="2.3"></circle>
            <circle id="Oval" cx="1275.2" cy="352.4" r="2.3"></circle>
            <circle id="Oval" cx="1273" cy="456.6" r="2.3"></circle>
            <circle id="Oval" cx="1299.8" cy="385.4" r="2.3"></circle>
            <circle id="Oval" cx="1398.3" cy="432.2" r="2.3"></circle>
            <circle id="Oval" cx="1199.8" cy="307.4" r="2.3"></circle>
            <circle id="Oval" cx="1139.5" cy="249.7" r="2.3"></circle>
            <circle id="Oval" cx="1240.3" cy="192.3" r="2.3"></circle>
            <circle id="Oval" cx="1238" cy="296.5" r="2.3"></circle>
            <circle id="Oval" cx="1264.8" cy="225.4" r="2.3"></circle>
            <circle id="Oval" cx="1363.3" cy="272.2" r="2.3"></circle>
            <circle id="Oval" cx="1164.9" cy="147.3" r="2.3"></circle>
            <circle id="Oval" cx="830.3" cy="192.3" r="2.3"></circle>
            <circle id="Oval" cx="931" cy="134.9" r="2.3"></circle>
            <circle id="Oval" cx="928.8" cy="239.1" r="2.3"></circle>
            <circle id="Oval" cx="955.6" cy="168" r="2.3"></circle>
            <circle id="Oval" cx="1054.1" cy="214.8" r="2.3"></circle>
            <circle id="Oval" cx="855.6" cy="89.9" r="2.3"></circle>
            <circle id="Oval" cx="872.5" cy="463.9" r="5.5"></circle>
            <circle id="Oval" cx="1092.7" cy="274.4" r="5.5"></circle>
            <circle id="Oval" cx="975.2" cy="815.6" r="5.5"></circle>
            <circle id="Oval" cx="393.5" cy="726.2" r="5.5"></circle>
            <circle id="Oval" cx="355.4" cy="341" r="5.5"></circle>
            <circle id="Oval" cx="1323.8" cy="563" r="5.5"></circle>
            <circle id="Oval" cx="1262.6" cy="413.5" r="5.5"></circle>
            <circle id="Oval" cx="1096.7" cy="371.1" r="5.5"></circle>
            <circle id="Oval" cx="451.6" cy="216.4" r="5.5"></circle>
            <circle id="Oval" cx="699.7" cy="738.1" r="5.5"></circle>
            <circle id="Oval" cx="1124.2" cy="691.4" r="5.5"></circle>
            <circle id="Oval" cx="540.2" cy="262.4" r="5.5"></circle>
            <circle id="Oval" cx="388" cy="862.4" r="5.5"></circle>
            <circle id="Oval" cx="724.6" cy="635.1" r="2.3"></circle>
            <circle id="Oval" cx="722.4" cy="739.3" r="2.3"></circle>
            <circle id="Oval" cx="749.2" cy="668.2" r="2.3"></circle>
            <circle id="Oval" cx="438" cy="548.7" r="5.5"></circle>
            <path d="M903,551.9 C915.304552,551.9 925.843622,559.458925 930.226931,570.186496 C947.517548,565.664427 959.446279,563.493967 959.92787,565.06086 C960.412366,566.637202 949.186737,571.591027 932.170585,577.609275 C932.321988,578.818179 932.4,580.049979 932.4,581.3 C932.4,597.537172 919.237172,610.7 903,610.7 C891.559593,610.7 881.645397,604.165514 876.786148,594.625279 C859.4178,599.172251 847.423432,601.359307 846.94049,599.78802 C846.460409,598.226041 857.478023,593.34785 874.234076,587.403851 C873.818665,585.43451 873.6,583.392791 873.6,581.3 C873.6,565.062828 886.762828,551.9 903,551.9 Z" id="big-planet-5"></path>
            <circle id="big-planet-6" cx="1374.9" cy="325.1" r="17.7"></circle>
            <circle id="Oval" cx="444.8" cy="80.3" r="2.3"></circle>
            <circle id="Oval" cx="543.3" cy="127.1" r="2.3"></circle>
            <circle id="Oval" cx="545.9" cy="56.3" r="1.9"></circle>
            <circle id="Oval" cx="668.6" cy="102.8" r="2.3"></circle>
            <circle id="Oval" cx="432.1" cy="154.5" r="2.3"></circle>
            <circle id="Oval" cx="686.6" cy="187.8" r="2.3"></circle>
            <circle id="Oval" cx="1283.7" cy="87.7" r="2.3"></circle>
            <circle id="Oval" cx="1382.2" cy="134.5" r="2.3"></circle>
            <circle id="Oval" cx="1384.8" cy="63.7" r="1.9"></circle>
            <circle id="Oval" cx="988.3" cy="94.4" r="2.3"></circle>
            <circle id="Oval" cx="1271" cy="162" r="2.3"></circle>
            <circle id="Oval" cx="1143.7" cy="136.8" r="2.3"></circle>
            <circle id="Oval" cx="1280.8" cy="867.2" r="2.3"></circle>
            <circle id="Oval" cx="1381.5" cy="809.8" r="2.3"></circle>
            <circle id="Oval" cx="1406.1" cy="842.9" r="2.3"></circle>
            <circle id="Oval" cx="1306.1" cy="764.8" r="2.3"></circle>
            <circle id="Oval" cx="1443" cy="177.9" r="2.3"></circle>
            <circle id="Oval" cx="1440.8" cy="282.1" r="2.3"></circle>
            <circle id="Oval" cx="1537.4" cy="257.8" r="2.3"></circle>
            <circle id="Oval" cx="1460.3" cy="443.3" r="2.3"></circle>
            <circle id="Oval" cx="1531.5" cy="752.2" r="2.3"></circle>
            <circle id="Oval" cx="1632.2" cy="694.8" r="2.3"></circle>
            <circle id="Oval" cx="1629.9" cy="799" r="2.3"></circle>
            <circle id="Oval" cx="1470.5" cy="405.4" r="2.3"></circle>
            <circle id="Oval" cx="1468.2" cy="509.6" r="2.3"></circle>
            <circle id="Oval" cx="1495" cy="438.5" r="2.3"></circle>
            <circle id="Oval" cx="1593.5" cy="485.3" r="2.3"></circle>
            <circle id="Oval" cx="1615.4" cy="627.8" r="2.3"></circle>
            <circle id="Oval" cx="1716.2" cy="570.5" r="2.3"></circle>
            <circle id="Oval" cx="1713.9" cy="674.7" r="2.3"></circle>
            <circle id="Oval" cx="1740.7" cy="603.5" r="2.3"></circle>
            <circle id="Oval" cx="1839.2" cy="650.3" r="2.3"></circle>
            <circle id="Oval" cx="1640.8" cy="525.5" r="2.3"></circle>
            <circle id="Oval" cx="1574.6" cy="348.6" r="2.3"></circle>
            <circle id="Oval" cx="1675.3" cy="291.2" r="2.3"></circle>
            <circle id="Oval" cx="1673.1" cy="395.4" r="2.3"></circle>
            <circle id="Oval" cx="1699.9" cy="324.3" r="2.3"></circle>
            <circle id="Oval" cx="1798.4" cy="371.1" r="2.3"></circle>
            <circle id="Oval" cx="1599.9" cy="246.2" r="2.3"></circle>
            <circle id="Oval" cx="1539.6" cy="188.5" r="2.3"></circle>
            <circle id="Oval" cx="1640.4" cy="131.1" r="2.3"></circle>
            <circle id="Oval" cx="1638.1" cy="235.3" r="2.3"></circle>
            <circle id="Oval" cx="1664.9" cy="164.2" r="2.3"></circle>
            <circle id="Oval" cx="1763.4" cy="211" r="2.3"></circle>
            <circle id="Oval" cx="1565" cy="86.2" r="2.3"></circle>
            <circle id="Oval" cx="1454.2" cy="153.6" r="2.3"></circle>
            <circle id="Oval" cx="1492.8" cy="213.3" r="5.5"></circle>
            <circle id="Oval" cx="1723.9" cy="501.8" r="5.5"></circle>
            <circle id="Oval" cx="1662.7" cy="352.3" r="5.5"></circle>
            <circle id="Oval" cx="1496.8" cy="309.9" r="5.5"></circle>
            <circle id="Oval" cx="1524.3" cy="630.2" r="5.5"></circle>
            <circle id="big-planet-1" cx="1775" cy="263.9" r="17.7"></circle>
            <circle id="big-planet-4" cx="827.7" cy="135.7" r="17.7"></circle>
            <circle id="Oval" cx="1683.8" cy="26.5" r="2.3"></circle>
            <circle id="Oval" cx="1782.3" cy="73.4" r="2.3"></circle>
            <circle id="Oval" cx="1784.9" cy="2.6" r="1.9"></circle>
            <circle id="Oval" cx="1671.1" cy="100.8" r="2.3"></circle>
            <circle id="Oval" cx="1543.8" cy="75.6" r="2.3"></circle>
            <circle id="Oval" cx="1680.9" cy="806" r="2.3"></circle>
            <circle id="Oval" cx="1781.6" cy="748.6" r="2.3"></circle>
            <circle id="Oval" cx="1806.2" cy="781.7" r="2.3"></circle>
            <circle id="Oval" cx="1706.2" cy="703.7" r="2.3"></circle>
            <circle id="Oval" cx="8.8" cy="307" r="2.3"></circle>
            <circle id="Oval" cx="2.9" cy="801.4" r="2.3"></circle>
            <circle id="Oval" cx="103.7" cy="744" r="2.3"></circle>
            <circle id="Oval" cx="101.4" cy="848.2" r="2.3"></circle>
            <circle id="Oval" cx="65" cy="534.5" r="2.3"></circle>
            <circle id="Oval" cx="86.9" cy="677.1" r="2.3"></circle>
            <circle id="Oval" cx="187.6" cy="619.7" r="2.3"></circle>
            <circle id="Oval" cx="185.4" cy="723.9" r="2.3"></circle>
            <circle id="Oval" cx="212.2" cy="652.8" r="2.3"></circle>
            <circle id="Oval" cx="310.7" cy="699.6" r="2.3"></circle>
            <circle id="Oval" cx="112.2" cy="574.7" r="2.3"></circle>
            <circle id="Oval" cx="46" cy="397.8" r="2.3"></circle>
            <circle id="Oval" cx="146.8" cy="340.4" r="2.3"></circle>
            <circle id="Oval" cx="144.5" cy="444.6" r="2.3"></circle>
            <circle id="Oval" cx="171.3" cy="373.5" r="2.3"></circle>
            <circle id="Oval" cx="269.8" cy="420.3" r="2.3"></circle>
            <circle id="Oval" cx="71.4" cy="295.5" r="2.3"></circle>
            <circle id="Oval" cx="11.1" cy="237.8" r="2.3"></circle>
            <circle id="Oval" cx="111.8" cy="180.4" r="2.3"></circle>
            <circle id="Oval" cx="109.6" cy="284.6" r="2.3"></circle>
            <circle id="Oval" cx="136.4" cy="213.4" r="2.3"></circle>
            <circle id="Oval" cx="234.9" cy="260.2" r="2.3"></circle>
            <circle id="Oval" cx="36.4" cy="135.4" r="2.3"></circle>
            <circle id="Oval" cx="195.4" cy="551.1" r="5.5"></circle>
            <circle id="Oval" cx="134.1" cy="401.6" r="5.5"></circle>
            <circle id="big-planet-3" cx="246.5" cy="313.2" r="17.7"></circle>
            <circle id="big-planet-2" cx="639.7" cy="395.7" r="17.7"></circle>
            <circle id="Oval" cx="155.3" cy="75.8" r="2.3"></circle>
            <circle id="Oval" cx="253.7" cy="122.6" r="2.3"></circle>
            <circle id="Oval" cx="256.3" cy="51.8" r="1.9"></circle>
            <circle id="Oval" cx="142.6" cy="150" r="2.3"></circle>
            <circle id="Oval" cx="15.2" cy="124.8" r="2.3"></circle>
            <circle id="Oval" cx="152.3" cy="855.3" r="2.3"></circle>
            <circle id="Oval" cx="253.1" cy="797.9" r="2.3"></circle>
            <circle id="Oval" cx="277.6" cy="830.9" r="2.3"></circle>
            <circle id="Oval" cx="177.7" cy="752.9" r="2.3"></circle>
            <circle id="Oval" cx="494.2" cy="690.9" r="2.3"></circle>
            <circle id="Oval" cx="623.9" cy="692.5" r="2.3"></circle>
            <circle id="Oval" cx="550.8" cy="543.4" r="2.3"></circle>
            <circle id="Oval" cx="649.3" cy="590.2" r="2.3"></circle>
            <circle id="Oval" cx="611.2" cy="766.8" r="2.3"></circle>
            <circle id="Oval" cx="596.5" cy="433.5" r="5.5"></circle>
        </g>
    </g>
</svg>